<svg id="Lag_1" data-name="Lag 1" xmlns="http://www.w3.org/2000/svg" viewBox="0 0 1366 768"><defs><style>.cls-1{fill:#fff;}</style></defs><title>hvidpil</title><path d="M315,209Q499,372.58,678.42,541.71"/><path class="cls-1" d="M307.58,216.42Q451.18,344.09,591.85,475q39.69,36.94,79.15,74.14c9.83,9.27,24.71-5.56,14.85-14.85Q546,402.45,403.18,273.82q-40.26-36.25-80.76-72.24c-4.23-3.77-10.67-4.18-14.84,0-3.84,3.83-4.26,11.06,0,14.84Z"/><path d="M678.7,543,1037,209"/><path class="cls-1" d="M686.12,550.38,965.45,290l79-73.61c9.91-9.23-5-24.06-14.84-14.84L750.24,461.92l-79,73.61c-9.91,9.23,5,24.06,14.85,14.85Z"/></svg>
