<svg id="Øsm" xmlns="http://www.w3.org/2000/svg" viewBox="0 0 29.9 23.33"><defs><style>.cls-1{fill:#fff;}.cls-2{fill:none;stroke:#fff;stroke-miterlimit:10;}</style></defs><title>Tegnebræt 2</title><path class="cls-1" d="M17.35,7.16a.74.74,0,0,0,0,1L20,11H9.27a.69.69,0,0,0-.67.71.68.68,0,0,0,.67.7H20l-2.65,2.8a.74.74,0,0,0,0,1,.66.66,0,0,0,.95,0l3.79-4a.79.79,0,0,0,.14-.23.86.86,0,0,0,.05-.27h0a.73.73,0,0,0-.19-.5l-3.79-4A.66.66,0,0,0,17.35,7.16Z"/><circle class="cls-2" cx="15.44" cy="11.66" r="8.64"/></svg>
