<svg id="Øsm" xmlns="http://www.w3.org/2000/svg" viewBox="0 0 17.61 23.69"><defs><style>.cls-1{fill:#91673b;}.cls-2{fill:#f6e422;}</style></defs><title>Tegnebræt 2</title><path class="cls-1" d="M15.34,15.51a1,1,0,0,0-1.41,0l-4,4V3.39a1,1,0,0,0-2,0V19.48l-4-4a1,1,0,0,0-1.42,0,1,1,0,0,0,0,1.41L8.23,22.6a1.19,1.19,0,0,0,.33.22,1,1,0,0,0,.38.08H9a1,1,0,0,0,.71-.3l5.68-5.68A1,1,0,0,0,15.34,15.51Z"/><path class="cls-2" d="M15.34,13.92a1,1,0,0,0-1.41,0l-4,4V1.8a1,1,0,0,0-2,0V17.89l-4-4a1,1,0,0,0-1.42,1.41L8.23,21a1.19,1.19,0,0,0,.33.22,1,1,0,0,0,.38.07H9A1,1,0,0,0,9.66,21l5.68-5.68A1,1,0,0,0,15.34,13.92Z"/></svg>
