<svg id="Øsm" xmlns="http://www.w3.org/2000/svg" viewBox="0 0 16.46 12.84"><defs><style>.cls-1{fill:#fff;}</style></defs><title>Tegnebræt 2</title><path class="cls-1" d="M11.1,1.71a.64.64,0,0,1,.47.21l3.79,4a.74.74,0,0,1,.2.5h0a.7.7,0,0,1-.2.5l-3.79,4a.63.63,0,0,1-.94,0,.73.73,0,0,1,0-1l2.65-2.8H2.55a.69.69,0,0,1-.67-.71.68.68,0,0,1,.67-.7H13.29L10.63,2.91a.73.73,0,0,1,0-1,.64.64,0,0,1,.47-.21m0-.75a1.4,1.4,0,0,0-1,.44,1.47,1.47,0,0,0,0,2L11.55,5h-9a1.46,1.46,0,0,0,0,2.91h9L10.09,9.41a1.47,1.47,0,0,0,0,2,1.39,1.39,0,0,0,2,0l3.79-4a1.57,1.57,0,0,0,.3-.47,1.65,1.65,0,0,0,.09-.43V6.42h0V6.3a1.47,1.47,0,0,0-.39-.9l-3.79-4a1.41,1.41,0,0,0-1-.44Z"/></svg>
