<svg id="geomuseum" xmlns="http://www.w3.org/2000/svg" xmlns:xlink="http://www.w3.org/1999/xlink" viewBox="0 0 277.79 289.13"><defs><style>.cls-1{fill:#fff;}</style><symbol id="New_Symbol_19" data-name="New Symbol 19" viewBox="0 0 102.63 126.67"><path class="cls-1" d="M86.21,100.68l.07-.05.29,0a4,4,0,0,0,2.51-1.83c.46-.71,1-1.47,1.5-2.19s1.07-1.52,1.54-2.28A34.75,34.75,0,0,0,95.18,87a27.82,27.82,0,0,1,1-2.91A12.58,12.58,0,0,0,97,81.66c.09-.37.68-1.72,1-2.54a18.22,18.22,0,0,0,.83-2,35.38,35.38,0,0,0-.07-5.15,11,11,0,0,0,1.35-1,10,10,0,0,0,1.64-3.12,20,20,0,0,0,.72-7.29c-.13-.94-.18-2.36-.22-3.62a19.49,19.49,0,0,0-.18-2.69c-.85-3.78-1.39-6.59-1.46-7.53a4.69,4.69,0,0,0-.9-2.4,1.85,1.85,0,0,0,.08-1.3,10,10,0,0,0-.44-1.34c-.11-.3-.21-.58-.29-.82-.21-.7-1.49-3.42-3.14-6.9-.57-1.21-1.06-2.25-1.17-2.51a60.64,60.64,0,0,0-3.48-5.26c-.92-1.33-2-2.83-2.11-3.12a7,7,0,0,0-1.56-1.72c-.28-.26-.68-.64-.83-.81a21.81,21.81,0,0,0-2.17-2.68C84,17.07,83,16,82.84,15.7s-.44-.64-3.24-2.81c-1.32-1-3.09-2.36-3.69-2.7-.17-.09-.6-.36-1.14-.69-6.09-3.73-7.47-4.29-8.28-4.11a1.76,1.76,0,0,1-1.28-.23L65,5a28.6,28.6,0,0,0-6.16-3.14A21.09,21.09,0,0,0,51.76.46c-1.59,0-6.27,0-7,0L43.14.11a13.08,13.08,0,0,0-5.09.45L37,.8,36,1a60,60,0,0,0-7.88,2.19A17.35,17.35,0,0,0,23.91,5.3,8.36,8.36,0,0,1,22.77,6a3.3,3.3,0,0,0-1.59,1.26.45.45,0,0,1-.18.2,1,1,0,0,1-.38.16l-.33.06-.56.11a6.82,6.82,0,0,0-.88.26c-1.47.54-5.27,4-5.83,4.71-.3.36-1.13,1.17-1.86,1.89s-1.33,1.3-1.74,1.75a18.65,18.65,0,0,0-2.18,3.55,10.51,10.51,0,0,0-2.49,2.92c-.67,1.42-1.88,4.78-2.07,5.4a51.57,51.57,0,0,0-1.34,5.26,22.58,22.58,0,0,1-.92,3.83,3.64,3.64,0,0,0,0,1.94l0,.2c-.75.8-.33,2,0,3,.08.22.19.54.22.68A33.85,33.85,0,0,0,1,48.5c.13.74.32,1.51.66,2.91.14.52.29,1.14.47,1.88a10,10,0,0,0,1.8,4c.55.86,1.3,2,2.43,4,1.78,3,6.21,7.37,10,10.08a36.14,36.14,0,0,0,11.44,5.52,57.35,57.35,0,0,1,6.48,2.1c9.2,3.43,18.53.8,19.22,3.87.5,2.22.87,2.37-.12,4.68C52.82,88.77,49,92,45.1,95.9c-4.87,4.94-9.46,9.6-10.59,11.8-2.14,4.18-1.92,11.53-1.91,11.84v.09l.92,4.11,2.65,2.93.58-.14s1.65-.41,2.89-.68a9.6,9.6,0,0,1,1.19-.24h.62a24.59,24.59,0,0,0,4.81-.29,4.15,4.15,0,0,0,.88-.28,10.88,10.88,0,0,1,2-.57c1.75-.39,3.82-.71,3.84-.72h.12l.11,0c1.8-.75,4.78-1.93,5.55-2.1h0l.23,0c.39-.09.92-.35,2.54-2.36a22.22,22.22,0,0,0,1.75-2.44s0,0,0,0a1.59,1.59,0,0,1,.34.21,1.53,1.53,0,0,0,1.45.35,5.68,5.68,0,0,0,.82-.28,6,6,0,0,1,1-.36,14.24,14.24,0,0,0,3.59-1.17A44.12,44.12,0,0,0,76,112c1.29-1,4.21-3.28,5.43-4.48A33.09,33.09,0,0,0,85.13,103C85.42,102.49,86,101.22,86.21,100.68ZM97.74,45a3,3,0,0,1,1,1.88c.09,1.43,1,5.51,1.49,7.82a21.65,21.65,0,0,1,.14,2.33c.05,1.3.1,2.77.24,3.81a17.94,17.94,0,0,1-.61,6.32,9.79,9.79,0,0,1-1.16,2.4,15.48,15.48,0,0,1-1.51,1l-.51.31V71l-.08-.06s-.5-.35-1-.76a31.94,31.94,0,0,1-3.31-3.84,34.4,34.4,0,0,1-1.55-4.5,35.2,35.2,0,0,1-.47-6.3c.14-1.05-.6-4.13-1.26-6.69L89,48.59a47.33,47.33,0,0,0-3-6.83c-.72-1.25-5.12-7.17-6.35-8.07-.71-.51-1.07-.65-1.44-.56l-.08,0h-.06a.11.11,0,0,1-.08,0,.79.79,0,0,0-.3,0c-.53.11-1.12.71-2,1.68a12.61,12.61,0,0,0-2,3.77c-.19.54-.62,1.52-1,2.39s-.63,1.43-.76,1.79c-.31.84-1.06,2.87-1.32,3.73-.15.47-.8,1.83-1.32,2.92-.4.84-.75,1.56-.85,1.84a24.18,24.18,0,0,1-2.55,3.42,15.36,15.36,0,0,1-3.46,1.89l-.9.42a1.22,1.22,0,0,1-.27.09,4.69,4.69,0,0,1-2.69-.76l-.45-.22a10.35,10.35,0,0,1-2.5-2.67c-.26-.35-.49-.65-.68-.88a15.65,15.65,0,0,1-1.4-2.67,15.31,15.31,0,0,0-1.11-2.17c-.64-.88-3.59-4.18-4-4.59-.15-.16-.31-.31-.47-.45a1.69,1.69,0,0,1-.59-.72c0-.2.31-.65.54-.94a5.45,5.45,0,0,0,.37-.51.16.16,0,0,1,.12-.06,4.69,4.69,0,0,1,2.2.54,70.52,70.52,0,0,1,6.14,3.66,17.58,17.58,0,0,0,4.2,1.44l.74.2,0,0a8.14,8.14,0,0,0,3.05-.18,3.83,3.83,0,0,0,.43-.11c1-.29,2-1.4,3.31-3.38.83-1.31.71-7.64.58-8.23,0-.22-.15-1.59-.24-2.8-.11-1.55-.24-3.16-.33-3.67-.14-.81,0-5.64,0-6.39h0a6,6,0,0,1,1.3,0h0c.78,0,4.54,2,4.91,2.27s2.65,2.26,3,2.64c.2.21.78.75,1.38,1.31s1.34,1.22,1.5,1.41,1.08,1.38,1.79,2.31c.55.72,1,1.34,1.17,1.52s.53.76,1,1.51a49.22,49.22,0,0,0,3.65,5.11,28.86,28.86,0,0,0,2.7,2l.35.24a13.17,13.17,0,0,0,2.32,1,4.44,4.44,0,0,1,.43.16,12.35,12.35,0,0,0,1.47.41c.41.1.92.23,1,.27l.47.19-.38.23ZM85.21,21.67a11.37,11.37,0,0,0,1.1,1.12,14.69,14.69,0,0,1,1.13,1.14c.14.28.56.91,2.27,3.39,1.23,1.77,3.09,4.46,3.29,4.91s.58,1.26,1.21,2.58c1.06,2.25,2.85,6,3,6.64.09.3.21.62.33.93l.24.67a1,1,0,0,0-.28-.23c-.13-.06-.48-.17-1.21-.4a27.33,27.33,0,0,1-2.67-.92A29.84,29.84,0,0,1,90.07,39,18.56,18.56,0,0,1,88,36.12c0-.14-.09-.39-2.9-4.15-1.53-2-3.26-4.28-4.18-5.45-2-2.52-7.62-5.76-10-6.94a4.16,4.16,0,0,0-2.63-.6,2.54,2.54,0,0,0-.7.29,1.69,1.69,0,0,1-.49.2h0c-1,.23-.9,1.73-.83,2.63a3.14,3.14,0,0,1,0,.38c0,.25.07.92.16,1.78.14,1.38.33,3.26.29,3.77A16,16,0,0,0,67,31.86c.14.62.23,1.36.33,2.07s.16,1.22.26,1.67a16.65,16.65,0,0,1-.07,3.76l0,.27a6.68,6.68,0,0,1-1.33,3.16,3.58,3.58,0,0,1-1.9,1.47,6.73,6.73,0,0,1-3.39.15c-.54-.19-1.07-.41-1.55-.6A8.4,8.4,0,0,0,58,43.34c-.39-.14-3.41-1.91-5.21-3s-2.18-1.28-2.28-1.31a9.16,9.16,0,0,0-2.38,0l-.11,0a4.69,4.69,0,0,0-.69.32c-.22.11-.53.27-.7.33a10.84,10.84,0,0,1-1.42-1.36,4.08,4.08,0,0,1,.56-.88,9,9,0,0,0,.56-.81s.13-.21,1.12-.43a23.56,23.56,0,0,1,2.65-.39c.51-.07.91-.11,1.12-.16s2.41,0,4.08,0a35.61,35.61,0,0,0,4.25,0,9,9,0,0,0,2.91-1.05c1-.59,1.59-2.1,2-4.92.35-2.45-5.55-9.12-5.61-9.17l0,0a65.3,65.3,0,0,1-4.08-6.22,1.43,1.43,0,0,1,.7-1.55l.12,0a11.16,11.16,0,0,1,2.17,0c.73,0,1.63.07,2.69.07,2.14,0,6.39,1.58,8.21,2.26.62.23.79.29.88.31.33.12,2.64,1.46,4.67,2.67l0,0h0a19.71,19.71,0,0,1,4.27,2.12c1.54,1.2,5.46,1.57,5.8,1.49A7,7,0,0,1,85.21,21.67ZM31.4,52.29a2.46,2.46,0,0,0-.1,2.11,4.42,4.42,0,0,0,2.51,2c-1.06.82-1.64,1.4-1.87,1.17h0L31.36,57c-.65-.69-1.39-1.45-2-2.05l-.94-1a10.26,10.26,0,0,1-1-1.68,14.75,14.75,0,0,0-.93-1.64.47.47,0,0,1,0-.38,4.56,4.56,0,0,1,1.4-1.93,9.87,9.87,0,0,1,2.63-.37c.18.13.48.15,1.39,0s2.45-.68,2.62-.74l.77-.17a3.38,3.38,0,0,1,1,1l0,0a2,2,0,0,1-.43.29,3.56,3.56,0,0,0-.74.52,1.39,1.39,0,0,1-.5.22C33.9,49.3,32.59,49.73,31.4,52.29Zm1.87,2.89-.89-1.7a11.14,11.14,0,0,0,.85-2.29,5.85,5.85,0,0,1,1.11-.64l1.37-.65.63-.41,1.93-1.59.58.35-.13.82a1.52,1.52,0,0,0-.12.66l-.54,2.42a24.58,24.58,0,0,1-3.53,3.74ZM65.17,8c.11,0,.28-.13.31-.66a3.29,3.29,0,0,0,1.33,0,15.27,15.27,0,0,1,2.9,1.43c1.41.81,3,1.77,4,2.41.59.36,1,.62,1.22.73a74.94,74.94,0,0,1,6.19,4.79,30.39,30.39,0,0,0,2,2.46c.43.49.94,1.09,1.33,1.55L83,20.52c-.6-.08-1.07-.14-1.27-.15a53.75,53.75,0,0,1-6.31-3.05c-.22-.18-1.51-.89-3.46-2-1-.52-2-1.12-2.15-1.2s-.82-.38-7.66-2.57l-.78-.25c-.57-.2-7.1-.07-7.45,0h-.06c-.74.17-1,1.49-1,2,0,.18-.07.66,2.55,4.39a38,38,0,0,0,2.92,3.82,43.49,43.49,0,0,1,4.4,6.94,5.49,5.49,0,0,1-.07,3.91,3.2,3.2,0,0,1-1.25,1.12c-.16.09-.41.27-.7.48s-.58.43-.79.55a1,1,0,0,1-.28.09,12.53,12.53,0,0,1-3.29.16c-.52-.07-5.17-.64-5.85-.59s-2.83.35-4.2.65l-.25.06a3.07,3.07,0,0,0-2,1.18l-.26.3,0,0a.43.43,0,0,0-.17-.12c-.26-.23-1-1.56-.71-2.13S45.18,32.41,46,32a5.48,5.48,0,0,0,.47-.29c.25-.17,2.12-.86,3.24-1.27l.13,0a21.81,21.81,0,0,0,3.9-1.91,7,7,0,0,0,2.44-2.87c.28-.85-.67-2.26-1.67-3.62-.17-.24-.33-.46-.37-.54s-.12-.22-1.11-1L52.55,20a6.65,6.65,0,0,0-1.46-1.24l-.69-.46a5.41,5.41,0,0,0-1.29-.73c-.28-.2-1.34-1-1.5-1.05s-1.81-1-3.09-1.52a36.59,36.59,0,0,1-3.3-1.84c-.47-.29-.88-.54-1.17-.7-.61-.34-.56-.53-.34-1.25a.88.88,0,0,1,0-.15s.09-.27,1.19-.77c.71-.32,1.55-.61,2.23-.85L44,9.11a3.48,3.48,0,0,1,.6-.17,36.74,36.74,0,0,1,5.49-.58,26.42,26.42,0,0,1,4.32.18l.19,0c.62.06,2,.15,3.16.22l1.61.11a45.49,45.49,0,0,0,4.94-.64A5,5,0,0,0,65.17,8ZM44.77,2.73l0-.08a1.79,1.79,0,0,1,.12-.24c1.1,0,5.34.08,6.9,0A19.42,19.42,0,0,1,58.2,3.75a27.38,27.38,0,0,1,5.71,2.92l.34.21.33.17a.56.56,0,0,0,0,.1v0l-.12,0a8.36,8.36,0,0,1-1,.13,2.6,2.6,0,0,0-.38,0l-.16,0c-.62.09-2.5.37-3.08.4a12.15,12.15,0,0,1-1.93-.29c-.79-.14-1.62-.3-2.16-.33a15,15,0,0,1-1.89-.3,16.48,16.48,0,0,0-1.68-.27A21.15,21.15,0,0,0,48,6.83c-.44.08-1.15.15-1.89.23s-1.25.13-1.83.21L44,7.33A23.9,23.9,0,0,0,40.21,8.8l-.79.36a3.91,3.91,0,0,0-1.75,1.57c-.1.14-.19.28-.29.4a.83.83,0,0,0-.15.94,2,2,0,0,0,.58.59,5.58,5.58,0,0,1,.5.42A6.73,6.73,0,0,0,41,14.48,4.85,4.85,0,0,1,42.1,15l.75.37,1.19.6c.75.39,1.4.72,2,1a11.43,11.43,0,0,1,1.11.54c.4.2.84.44,1.47.7l.11.05c.6.44,2.48,1.8,3.74,2.79l0,0a5.65,5.65,0,0,1,1,1.4c.17.3.36.63.62,1,.41.65.39.76.31,1.2a6.22,6.22,0,0,0-.14,1c0,.83-.18.93-.54,1.19a5.48,5.48,0,0,0-.6.51,9.7,9.7,0,0,1-2.26,1.41l-.6.31a1.88,1.88,0,0,1-.79.19,5,5,0,0,0-.76.1,4.44,4.44,0,0,0-.73.24,34,34,0,0,0-3.56,1.88,21.74,21.74,0,0,0-1.88,1.25l-.1.08c-.27.19-.59.38-.85.54a5.5,5.5,0,0,0-.51.32,8.5,8.5,0,0,1-1.31.35l-.45.1-.24,0,0,.17a2.17,2.17,0,0,1-.48.16,6.63,6.63,0,0,1-1.41.15,10.1,10.1,0,0,1,.56-2.49c.18-.42,2.42-4.71,2.55-4.95s1-2.35,1.17-2.77l0-.05v-.05c0-.21.19-2.05.17-2.54a13.57,13.57,0,0,0-1.5-4c-.61-1-2.88-1-5.34-.86-.49,0-.91,0-1.11,0a29,29,0,0,0-3.5.26l-.85.09A16.28,16.28,0,0,1,26,16.65s0,0,0,0,0-.12.06-.19a4.22,4.22,0,0,0,.23-.8,4.63,4.63,0,0,1,1.3-1.94l.24-.26a18.76,18.76,0,0,1,3-2.37,45.46,45.46,0,0,1,4.07-2.16c.68-.32,3.75-1.6,4.49-1.85a19.61,19.61,0,0,0,3.34-1.65A16.51,16.51,0,0,0,44.77,2.73Zm-21.16,5A10.06,10.06,0,0,0,25,7a16.14,16.14,0,0,1,3.83-1.87A60.82,60.82,0,0,1,36.46,3l1-.23,1-.23A12,12,0,0,1,42.76,2l.71.14a8.05,8.05,0,0,1-.86,1.35A5.21,5.21,0,0,1,41.2,4.68l-.59.39a6.06,6.06,0,0,1-2,.74l-.35.08L37.9,6a15,15,0,0,0-2.35.89c-.37.16-.71.32-1,.42l-.51.2c-1,.38-2.68,1-3.48,1.4a14.32,14.32,0,0,0-2.44,1.68c-.1.09-.2.16-.28.22-.41.32-1.2,1.08-1.72,1.57l-.33.31a10.18,10.18,0,0,0-1.16,1.7c-.17.27-.32.53-.42.67a4.52,4.52,0,0,0-.53,2c0,.63,1.05,1.17,1.82,1.28a35.45,35.45,0,0,0,3.79.17c.35,0,.91-.1,1.56-.19l1.41-.19c1.08-.13,2.18-.18,2.8-.19h.38a8.56,8.56,0,0,1,3.11.33c1,.35,1,.59,1.42,1.77.1.27.2.59.34,1,.44,1.19.37,1.42.21,1.92a6.5,6.5,0,0,0-.27,1.27,3.24,3.24,0,0,1-.52,1.77c-.1.16-.21.35-.34.61-.48,1-1.34,2.81-1.75,3.74a8.06,8.06,0,0,1-.57,1,2.93,2.93,0,0,0-.58,1.34v0A11.76,11.76,0,0,1,36.3,35a3.47,3.47,0,0,1-1.21,1.16c-.06-.3-.11-.87-.15-1.27s-.06-.72-.1-1a12.76,12.76,0,0,1,.55-3.49,1.49,1.49,0,0,0,.06-.26c0-.22.2-1.55.29-2.4a8,8,0,0,0-1.09-4.83c-1.22-1.95-4.7-2-5.57-1.81h0a46.81,46.81,0,0,0-6.3,3.13,18,18,0,0,1-3.49,1.54,1.94,1.94,0,0,1-2-.41c-.57-.47-.51-1.36-.44-2.22,0-.33,0-.63,0-.92,0-.76,1.64-3.33,2.27-4.3.18-.28.32-.49.4-.63a29.62,29.62,0,0,1,2.71-3.1A9.1,9.1,0,0,0,23.63,11c.11-.59-.61-1.76-1-2.4a2.42,2.42,0,0,0,.24-.33C22.93,8.15,23,8,23.61,7.75Zm-12.74,10c.38-.42,1-1.06,1.67-1.68.84-.83,1.64-1.61,2-2a28.17,28.17,0,0,1,5-4.12,4.71,4.71,0,0,1,.64-.19l.45-.09a3.25,3.25,0,0,0,.43-.08,2.85,2.85,0,0,0,.77-.27,0,0,0,0,0,0,0,1.86,1.86,0,0,1,.37.8,3.85,3.85,0,0,1,.14,1,6.27,6.27,0,0,1-.73,1.77,13.72,13.72,0,0,1-1.51,1.63,28.8,28.8,0,0,0-1.9,2.38c-.29.38-.56.75-.75,1a14.55,14.55,0,0,0-1.38,2.56l-.35.73a12,12,0,0,0-.89,3.17c0,.13-.46,3.11.74,3.5a2.64,2.64,0,0,0,1.45,0l.29-.07.34-.08.56-.11a9.21,9.21,0,0,0,3.06-1.38l.2-.13c.46-.28,1.12-.63,1.82-1s1.21-.64,1.77-1a34.64,34.64,0,0,1,4.36-1.92l.26-.08a2.67,2.67,0,0,1,1.18,0l.4.06a3.94,3.94,0,0,1,2,.85,5.27,5.27,0,0,1,1.05,1.84c0,.11.09.22.13.33a5.37,5.37,0,0,1,.17,1.76c0,.32,0,.57,0,.74a4.47,4.47,0,0,1-.11,1.89,9.06,9.06,0,0,0-.26,1.12c-.1.47-.2.95-.38,1.55A3.17,3.17,0,0,0,33.74,34c0,.22.08.46.12.79a5.88,5.88,0,0,0,.29,1.47c.05.14.09.26.14.45l.05.24a.46.46,0,0,0-.07.07,3.74,3.74,0,0,0-.4.43c-.25.3-.34.34-.35.34a2.2,2.2,0,0,1-.23-.08L33,37.61c-.2-.09-.54-.76-1-2a5.24,5.24,0,0,0-.25-.62,12.15,12.15,0,0,1-.39-1.64c0-.23-.08-.42-.11-.55-.32-1.44-.89-3.92-1.08-4.39a3.85,3.85,0,0,0-3.51-2.53,6.34,6.34,0,0,0-1.62.13,3.7,3.7,0,0,0-1.66.81l-.1.08a14.41,14.41,0,0,0-2.23,2.2c-.39.57-1,1.28-1.4,1.8l-.24.3c-.44.54-2,2.59-2.31,3.13a21.82,21.82,0,0,1-2.18,2.34,2,2,0,0,1-1,.63,3.13,3.13,0,0,1-.4.06c-.32,0-.69-.06-1.4-1.38-.6-1.11-.72-4.74-.65-5.74a20.88,20.88,0,0,1,.41-2.18c.15-.73.3-1.42.34-1.82,0-.1,0-.21,0-.33a16.79,16.79,0,0,0,.11-3.68,2.59,2.59,0,0,0-2.09-2.49h0a2.41,2.41,0,0,0-.69,0A11.66,11.66,0,0,1,10.87,17.7ZM3.73,35.32a4,4,0,0,0-.78.26,15.38,15.38,0,0,0,.35-1.85,48.52,48.52,0,0,1,1.26-4.92c.2-.65,1.39-3.9,2-5.12A9.14,9.14,0,0,1,8.65,21.3l.18-.14.1-.2a2.45,2.45,0,0,1,.14-.29h.06a5.31,5.31,0,0,1,.7,0c.2,0,.4,0,.6,0a3.73,3.73,0,0,1,.93,1.52,3.59,3.59,0,0,1-.11,2c-.08.31-.15.72-.23,1.14a14.29,14.29,0,0,1-.41,1.87,17.34,17.34,0,0,0-.4,2.69c-.05.5-.1,1-.14,1.2a12.11,12.11,0,0,0,.14,2.8c0,.19,0,.34,0,.41a20.14,20.14,0,0,0,1,3.42c.2.44.28.53.48.67a1.92,1.92,0,0,1,.34.32,1.15,1.15,0,0,0,1.27.5l.5,0a1.09,1.09,0,0,0,.26,0c.7-.16,1.07-.76,1.44-1.34a5.68,5.68,0,0,1,.47-.67l.43-.51c.73-.84,1.83-2.12,2.42-2.9.18-.25.42-.54.66-.86a26.74,26.74,0,0,0,1.92-2.64,10,10,0,0,1,2.36-2.53,4.94,4.94,0,0,1,2-.94,2.11,2.11,0,0,1,.43-.07,6,6,0,0,1,1.56.39,2.76,2.76,0,0,1,.75.71c.1.11.2.23.31.34a3.34,3.34,0,0,1,.55,1.43c0,.07,0,.13,0,.19a30.53,30.53,0,0,1,.59,3,12.36,12.36,0,0,0,1,3c.11.21.24.49.37.75A14,14,0,0,0,32,37.74a9.54,9.54,0,0,1,.76,1.48.22.22,0,0,1,0,.11,1.66,1.66,0,0,1-.37.15,2,2,0,0,0-.52.21l-.07,0a2.22,2.22,0,0,1-.79-.36l-.39-.22a7.44,7.44,0,0,1-1.76-1.78c-.18-.22-.33-.41-.46-.55s-.48-.55-.81-1c-.84-1-1.46-1.7-1.71-1.92-.58-.51-2.83-.66-2.93-.66a1.65,1.65,0,0,0-.49,0,4.75,4.75,0,0,0-1.71,1h0a7.54,7.54,0,0,0-1.67,2.3,7,7,0,0,0-.68,2.14v0c-.09.48-.16,1.06-.23,1.66,0,.34-.08.69-.13,1s-.07.57-.09.83a9.87,9.87,0,0,1-.32,1.88,12.49,12.49,0,0,1-.43,1.23A10.3,10.3,0,0,0,16.7,47a2.35,2.35,0,0,1-1.19,1.53l-.15.1c-.18,0-.81-.42-1.18-.69s-.78-.57-1.22-.83a4.82,4.82,0,0,1-1.89-2.34L11,44.63a18.29,18.29,0,0,1-1.13-3.7,15.9,15.9,0,0,0-1.93-4.65C7.1,35,5.77,35,4,35.26ZM3,43.91l-.06,0a1,1,0,0,0-.37-.21,1,1,0,0,0,0-.16c.11-.48-.2-1-.43-1.61A6,6,0,0,1,2,40.69,1.92,1.92,0,0,0,2.33,39c0-.19.09-.41.13-.63l.2-.62c0-.07,0-.13.07-.19a3.78,3.78,0,0,1,.2-.48,1.89,1.89,0,0,0,.16-.47c0-.08.18-.17.4-.22a4.28,4.28,0,0,1,1.39,0,2.69,2.69,0,0,1,1,.33,4.23,4.23,0,0,0,1,.39l.2.06H7a1.91,1.91,0,0,0,.5,1.2,5.92,5.92,0,0,1,.91,2.57c.08.4.16.81.27,1.23a21.79,21.79,0,0,0,1.11,3.18A13.47,13.47,0,0,0,11.59,48a11.51,11.51,0,0,0,2.67,2,2.34,2.34,0,0,0,1.72.41l.23-.07a1.22,1.22,0,0,1,.27-.06l.11,0c.6-.13.86-1,1.12-1.81,0-.14.08-.28.12-.39a27.33,27.33,0,0,0,1.23-4.71,34.06,34.06,0,0,1,1.12-6.24,3.9,3.9,0,0,1,2-2.4l.32-.2.23-.14h0a2.91,2.91,0,0,0,1.05,0,3,3,0,0,1,2,.84,1,1,0,0,0,.17.13l.09.14a9.51,9.51,0,0,0,.71,1,6.8,6.8,0,0,1,.54.7,3.53,3.53,0,0,0,.5.65c.22.23.4.44.57.64s.46.52.68.73.22.22.34.35a6.39,6.39,0,0,0,.91.86,3.83,3.83,0,0,0,1.29.74c.12,0,.12,0,.16.19a1.15,1.15,0,0,0,.17.45,3.08,3.08,0,0,1,.4.9l.24,1h0a8.27,8.27,0,0,1-1.86-.46l-.25-.08c-.32-.1-1.3-.54-2.08-.89-.58-.26-1.08-.49-1.32-.58a6.68,6.68,0,0,0-1.14-.28,2.61,2.61,0,0,0-.57-.09,8.66,8.66,0,0,0-1.79-.09l-.15,0a4.27,4.27,0,0,0-2,1.77l-.11.16a4.2,4.2,0,0,0-.49,2.19q0,.24,0,.39a11.43,11.43,0,0,0,.33,2.52v.07a8.74,8.74,0,0,0,.59,1.72A7.34,7.34,0,0,1,22,51c.1.37.3,1,.51,1.61.16.48.32,1,.45,1.42a3.45,3.45,0,0,1,0,1.88c0,.14-.05.3-.07.46-.06.38-.15.4-.46.49a2.7,2.7,0,0,0-.61.26.93.93,0,0,1-.22.08A6.56,6.56,0,0,1,19.38,57a5.39,5.39,0,0,1-1.68-.7c-.26-.14-.56-.31-.92-.49a9.07,9.07,0,0,1-2.1-1.85,8,8,0,0,0-.85-.84c-.41-.29-1.44-1.31-2-1.85l-.34-.34a16.24,16.24,0,0,0-1.33-1c-.44-.31-.89-.63-1-.76-.35-.32-2.35-2.09-2.84-2.51S3.24,44.08,3,43.91ZM5.62,56.22a8.22,8.22,0,0,1-1.54-3.4c-.19-.75-.34-1.37-.47-1.89-.34-1.35-.52-2.09-.63-2.76,0-.18-.07-.44-.1-.72a3.24,3.24,0,0,1,.55,0,2.62,2.62,0,0,1,1.29.3,7.35,7.35,0,0,0,1.13.41A3.64,3.64,0,0,1,7.5,49.2a8.93,8.93,0,0,0,.73.63c.8.57,3.33,2.57,3.48,2.7s2.71,2.65,2.93,2.88,3.18,2.35,3.65,2.65a13.9,13.9,0,0,0,2.9,1,4.34,4.34,0,0,0,2,0,2.92,2.92,0,0,0,.74-.26c1-.48.83-2.06.77-2.53s-.38-1.74-.65-2.88c-.18-.77-.35-1.49-.37-1.66a21.17,21.17,0,0,0-.76-2.14c-.23-.61-.49-1.3-.53-1.45a19.6,19.6,0,0,1-.47-3.47,4.78,4.78,0,0,1,1.33-2.14,2.9,2.9,0,0,1,.8-.3,8.14,8.14,0,0,1,1.18-.14h.08l.44.07a2.78,2.78,0,0,1,.54.28,5.44,5.44,0,0,0,.54.29c.62.28,1.26.54,1.79.74s1.76.74,1.89.81a7.09,7.09,0,0,0,1.38.43l1.19.35s0,0,.05,0a.34.34,0,0,1,.17.2.69.69,0,0,1,0,.41c0,.12,0,.29-.07.51a.83.83,0,0,0-.31.18.8.8,0,0,1-.37.16,4.75,4.75,0,0,1-.68.07h-.24l-.46,0a18.51,18.51,0,0,0-2,.2c-.64.15-1.1.25-1.8.44a1,1,0,0,0-.82.6.77.77,0,0,1-.16.24,2,2,0,0,0-.5.8,1.45,1.45,0,0,1-.11.26,4.52,4.52,0,0,0-.07,1.89,1.9,1.9,0,0,1,0,.32,5.38,5.38,0,0,0,.75,1.75c0,.06.06.1.07.13.11.21,1,1.5,1.14,1.76l0,0,3.09,3.11c-1.41,1-3.62,2.95-3.9,3.25a21.61,21.61,0,0,0-2.69,3.38s-2.09,1.36-3,.69A77.85,77.85,0,0,0,13.4,61a10.94,10.94,0,0,0-3.49-.77,2.6,2.6,0,0,0-1.25.85c-.21-.3-.41-.59-.57-.87C6.94,58.27,6.18,57.08,5.62,56.22ZM17.46,69.7A41.31,41.31,0,0,1,10,62.82h0c.6-.81,1.72-.26,2.53-.22a12.47,12.47,0,0,1,4,1.22c1.43.71,3.75,3.41,4.69,3.47s.95.8,2.27,0c0,.07,0,.13,0,.18-.05.23-.1.46-.13.71l0,0h0a11.44,11.44,0,0,0-.09,2.31,5.22,5.22,0,0,0,1.57,2.93c-.15.28-.29.49-.51.55L24,73.84a7.09,7.09,0,0,0-1.42-.67C21.44,72.7,19.48,71.08,17.46,69.7Zm41,49.92-.17,0c-1.13.25-5,1.82-5.77,2.15-.47.08-2.26.37-3.85.72a13.36,13.36,0,0,0-2.39.71,2.33,2.33,0,0,1-.47.15,23.59,23.59,0,0,1-4.36.24H40.7a11,11,0,0,0-1.34.25,9.77,9.77,0,0,1-3.66-.69l-.25-.28h0a16.63,16.63,0,0,1-.28-4.91c0-.57.08-1.11.15-1.61.39-1.22.91-2.65,1.5-4,.5-.51,1-1.09,1.57-1.69a26.34,26.34,0,0,1,4-3.85l.63-.38.19-.1c2.24-1,8.2-4.25,9.29-5.29l.64-.59c2.24-2.09,8.18-7.63,9.58-10a19,19,0,0,1,1.51-2c1.58-1.94,3.36-4.13,1.69-6.54-.8-1.15-3.33-2.05-7.7-2.75A1.72,1.72,0,0,0,57,78.94l-.1,0-1.3-.18c-2.22-.27-6-.64-11.36-.85a48.1,48.1,0,0,1-9.72-1.76c-4.32-1.27-7.66-2.58-8-4.06-1-4.64.7-6.83,1.74-7.72.86-.74,2.11-1.92,3.31-3.06l1.16-1.09.2.21,0-.39c.48-.44.9-.83,1.21-1.09l.64-.53a40.71,40.71,0,0,0,3.69-3.27A12.67,12.67,0,0,0,41.38,51a1.91,1.91,0,0,1,1,.14s.2.29,0,1.49a16.2,16.2,0,0,1-.57,2.22A67.12,67.12,0,0,1,38,62.2c-1.71,3-1.49,4.88-1,7.42s3.59,3.88,5.62,4.77l.45.2c2.33,1,10.16.14,10.24.13l.33-.06c1.4-.31,5.59-1.75,7.83-2.52L63,71.63h0a112.31,112.31,0,0,1,11.22-.91c.71.16,1.22,1.45,1.27,3.22s-1.16,6.25-1.83,8.15A19.27,19.27,0,0,1,72,85.42c-.31.55-.62,1.07-.89,1.59a43.48,43.48,0,0,1-3.22,4.54v0A90.68,90.68,0,0,0,63.79,101c-.19.47-.34.86-.46,1.14-.81,2-.45,7.46-.32,8a16.08,16.08,0,0,1,.45,2.49,6.5,6.5,0,0,1-.73,1.27,3.17,3.17,0,0,0-.24.4l-.39-.13-.29,1a5,5,0,0,1-.28.72A26.57,26.57,0,0,1,58.49,119.62Zm21.56-13.51c-1,1-3.76,3.21-5.23,4.31a44.1,44.1,0,0,1-5.14,3.29,12.92,12.92,0,0,1-3.16,1,7.71,7.71,0,0,0-1.36.45l-.38.15a4.13,4.13,0,0,0-.54-.34l.33-.24c.7-.54.62-1.88.23-3a20.44,20.44,0,0,1-.59-2.18c-.1-.41-.19-.79-.28-1.13-.17-.64.58-3.08,1-4.39.17-.55.31-1,.39-1.33.27-1.1,3.85-8.92,4.12-9.45,0-.13.46-.8,1-1.64,1.3-2.15,3.71-6.13,5.44-9.35,2.71-5.08,1.94-12.16,1.93-12.23-.16-1.41-2.11-2.23-3.12-2.46-.25-.06-.83-.05-3.17.47-3,.68-7.22,1.84-7.56,2-.53.16-7.77,2.33-8.51,2.49a74.43,74.43,0,0,1-8.84.5c-1.19-.19-4.63-.94-6.32-2.11s-1.92-3.12-2.09-5.08c-.11-1.19,1.27-3.43,2.19-4.9a12.25,12.25,0,0,0,.86-1.52c.13-.34.49-1.17.91-2.12,1-2.17,1.68-3.87,1.79-4.35a9.15,9.15,0,0,0,0-1.83,9.56,9.56,0,0,1,.07-2,2.11,2.11,0,0,1,1.43-.93c.05,0,.31.14.69,1a11.82,11.82,0,0,1,.55,1.7A30.74,30.74,0,0,1,47,55.06a30.8,30.8,0,0,0,0,3.22c0,1,0,1.86,0,2.15a19.53,19.53,0,0,0,1.49,5c.66,1.51,3.28,2.52,4.27,2.89l.09,0a8.21,8.21,0,0,0,4,.07l.37-.1c1.52-.43,6.62-3.7,7.43-4.41s6.63-5,10-7.58a21.93,21.93,0,0,1,6.1-3.1c.09,0,.39.06,1.16,1.33a2.49,2.49,0,0,0,.21.32c.23.45,1.55,4.6,1.63,5.15s.43,4.16.41,4.76c0,.16,0,.5,0,.94,0,1.21-.1,3.25-.15,3.84a34.09,34.09,0,0,1-.94,3.5c-.19.61-.34,1.1-.39,1.34A26.1,26.1,0,0,1,80.91,79c-.53,1-.83,4-.89,9v.21a8.35,8.35,0,0,0,.66,2.56,9.1,9.1,0,0,1,.4,1.27,24.08,24.08,0,0,0,1.24,3.24c.28.67.55,1.3.64,1.57a17.21,17.21,0,0,0,1.62,2.7l-.07.16c-.22.51-.85,1.94-1.12,2.46A33.39,33.39,0,0,1,80.05,106.11Zm6.09-7.45-.21,0-.3,0,0,0a2.69,2.69,0,0,0-.3-.29A12.19,12.19,0,0,1,83.91,96c-.2-.54-2.42-6.89-2.57-8.1a54.72,54.72,0,0,1,.84-7.59c.19-.4,1.8-4.25,1.95-4.71.07-.22.44-1.66,1-3.83.41-1.64.88-3.49.94-3.66h0a23.4,23.4,0,0,0,0-3.43,66.93,66.93,0,0,0-.74-6.74,11.39,11.39,0,0,0-2.09-5.28A3.79,3.79,0,0,0,80.69,51a1.8,1.8,0,0,0-.44,0,15.26,15.26,0,0,0-3.8,2c-.26.17-1.53,1.1-2.76,2L71.3,56.74c-.48.33-4.86,3.74-5.35,4.27a56.22,56.22,0,0,1-5,3.81,43.35,43.35,0,0,1-5.22,1.88l-.1,0a4.3,4.3,0,0,1-1.91,0l-.79-.12c-1.59-.23-3.34-2.13-3.92-3.09a11.76,11.76,0,0,1-.71-4.4,35.49,35.49,0,0,0-.14-4.73C48.06,53.25,48,52,48,51.86a7.28,7.28,0,0,0-.63-2.27c-.15-.41-.29-.8-.33-1A10.53,10.53,0,0,0,45.3,46.2l.15-.54,1-1.18a8,8,0,0,1,1.28.28c.22.2,1.57,1.72,1.72,1.9s2.58,3.7,2.73,4.08S54,54,54.26,54.36a19.2,19.2,0,0,0,4.6,3.87,4.37,4.37,0,0,0,3.06.26,13.12,13.12,0,0,0,2.4-.86l.37-.16c1.18-.5,4.23-3.85,4.59-4.37s2.68-6.63,2.85-7.17,2-4.62,2.18-4.94c.12-.16.52-.84,1.17-1.94s1.54-2.61,1.71-2.82a2.13,2.13,0,0,1,1.44-.58c.35,0,1.25,1,1.78,1.61.29.34.59.68.88,1a41.13,41.13,0,0,1,4.16,6.36,63.34,63.34,0,0,1,2.63,8c.65,3.92.66,4.85.61,5s0,.81.23,2c.2.88.45,2,.62,3.25.31,2.37,1.88,4.51,2.81,5.79l.41.57A13.11,13.11,0,0,0,96,71.87l.25.15.56-.59v0c.12,2.19.2,4.69.15,5.17-.08.24-.45,1.09-.72,1.72a13.18,13.18,0,0,0-1.19,3.15c-.07.27-.44,1.22-.7,1.92a23.28,23.28,0,0,0-1.13,3.28,35.21,35.21,0,0,1-2.78,6.53c-.46.72-1,1.47-1.5,2.2s-1.06,1.52-1.54,2.28A2.09,2.09,0,0,1,86.14,98.66Z"/></symbol></defs><title>Artboard 8</title><use width="102.63" height="126.67" transform="matrix(-2.08, 0, 0, 2.08, 239.32, 10.48)" xlink:href="#New_Symbol_19"/></svg>
