<svg id="Lag_1" data-name="Lag 1" xmlns="http://www.w3.org/2000/svg" viewBox="0 0 1000 1000"><defs><style>.cls-1{fill:#fff;}</style></defs><title>Tegnebræt 1</title><path class="cls-1" d="M96.94,346.65l-1.84,2.22,0,.08v0l.12.31,2.09-1.63a3.52,3.52,0,0,0-.39-1Z"/><path class="cls-1" d="M834,600.88l-3.63-15.17c4-1,7-1.76,9-2.32a49.47,49.47,0,0,1-5.4,17.49Zm-3.91,5.62C827,609.93,818,615,804.27,620.6l-6.19-27.4c12.35-2.67,22.49-5.08,29.95-6.9l4.21,17.46c-.69,1-1.39,1.84-2.14,2.74ZM273,578.67l-.9-10.54,11.59,11.41.37,6.07-7.87-4.87c-1-.67-2.12-1.36-3.19-2.07Zm-30.8-21.89-2.77-20.86L261.75,558l1.18,13.88c-6.36-4.42-13.33-9.49-20.77-15.14ZM95.15,397a169.33,169.33,0,0,1-3.06-20c2,3.76,4.78,8.83,8.62,15l5,29.47c-5.27-8.83-9-17.08-10.58-24.4Zm23.38-115.35a77.27,77.27,0,0,1,13.35-6.43l-5.25,93.37c-10-8.67-17.68-16.17-23.3-22.11l2-50.47c3.77-6.4,8.19-11.35,13.18-14.36Zm43.18-11.49-6.56,111.22-11.33-.66-.72,1.38c-5.18-4-9.9-7.9-14.24-11.58l5.41-96.16a82.91,82.91,0,0,1,26.51-4.25c.3,0,.62,0,.93,0Zm85.19,30.52-4.14,59.47-28.17,13.59,6.71-86.82c3.86,2,7.8,4.11,11.76,6.43.24.16,5.42,2.93,13.84,7.33ZM396.23,369.3l-6.65,83.63c-8.45-2.56-16.21-5.14-23.42-7.75l0-1.91L372.59,361c7.12,2.79,13.5,5.1,18.79,6.62.1.07,1.83.67,4.85,1.72Zm172.54,45.63-1.26,22.14L537,460.68l2.94-51.08c7.68,1.54,15.28,3,22.75,4.28l6.12,1.05Zm37.8,6.27-.4,6-4.51-6.8c1.67.3,3.33.53,4.91.81Zm150.28,38.64-27.73,16.09.5-25.86a.63.63,0,0,1,.31.09c9.72,3.06,18.7,6.31,26.92,9.68ZM829.6,521.9l-1,27.7c-7.25,1.49-18.3,3.38-33.2,5l-.08-1.54,2.49-70.69c14.85,11.26,25.18,24.22,31.78,39.51Zm7.71,25.7c-1.33.32-3.44.86-6.35,1.51l.81-21.75c.64,1.8,1.24,3.62,1.82,5.49q2.25,7.57,3.72,14.75Zm-74.47,52.69c12.11-2.26,23.15-4.5,32.91-6.58L802,621.54c-9.39,3.76-20.75,7.78-33.73,11.8l.83-.4-6.29-32.65Zm-26.28,28.08-5.93-22.54c10.5-1.66,20.5-3.38,29.9-5.12l6.32,33.07-4.24,1.28-26.05-6.69Zm1,4L755.84,637c-5.11,1.45-10.43,2.9-15.91,4.31l-2.33-9Zm-38-9.73,35.27,9,2.68,10.28c-9.85,2.5-20.24,4.87-31.1,7.11l-6.85-26.41Zm-13.4-3.42L697,621.93l7.08,27.58c-3.71.76-7.5,1.49-11.3,2.2l-6.55-32.51Zm-18.46-4.74,8.23,2.09,7.3,36.84c-3.06.52-6.13,1-9.27,1.53l-6.26-40.46ZM637.23,631l28.13-16.43,6.31,40.72c-9.33,1.44-18.92,2.7-28.64,3.79L637.23,631Zm-28.14,16.46,26-15.17,5.54,27.05q-14.82,1.63-30.11,2.56l.8-.3-2.2-14.14Zm-12,7.06,9.81-5.79,2,13.26c-3.83.23-7.72.41-11.63.59l-.23-8.06Zm-2.32,1.33.22,6.8c-4.12.13-8.26.23-12.37.29l12.15-7.09Zm-55.9-38.19q13.88.87,27.9,1.08l0,.43,6.4,43.83q-14.11,0-27.6-.5l-6.73-44.84ZM523,660.11l-1.11-2.17-8.6-42.4c7.65.8,15.37,1.51,23.13,2l6.75,44.88c-7.18-.26-14.2-.64-21.17-1.1l1-1.21ZM497.15,615,519.48,659l.42,2.16c-4.19-.3-8.32-.62-12.42-1L497.15,615Zm-25.64,38,1.12,1.53L494.55,615l10.22,45c-11.28-1-22.24-2.35-33-4l-.29-3Zm-29.19-50.4c7.19,1.77,14.48,3.49,21.95,5.12l5,47.87c-7.27-1.12-14.38-2.41-21.42-3.83l-5.5-49.16Zm-22.51-5.82q9.74,2.65,19.88,5.19l5.51,49.28c-6.26-1.3-12.48-2.73-18.63-4.25l.27-.08-7-50.14Zm-22.07,15,14.39-17.12c1.66.49,3.34.94,5,1.39l7.07,50.38q-11.78-3-23.22-6.57l-3.23-28.08Zm-16.37,19.4,14.25-16.93,2.88,24.85c-4.92-1.58-9.79-3.21-14.65-4.94l0-.13-2.51-2.85ZM373.69,627l3.76,4.23-.38.44-3.18-1.18-.2-3.49Zm-29.17-33,26.62,30.08.34,5.46q-12.44-4.78-24.8-10.44L344.52,594Zm-27.68-3.76,7.61-15.62,0,.25,1.06-2.31,16.36,18.49L344.22,618q-12.8-5.89-25.6-12.66l-1.78-15.09Zm-1.9,4,1.13,9.77c-1.54-.83-3.1-1.65-4.66-2.5l3.53-7.27ZM269.59,538.4c3.75,2,7.61,4,11.56,6l2.14,30.54-11.63-11.47-2.07-25ZM237.28,520c7.11,4.36,14.6,8.75,22.46,13.08v.37l-4.33,14L257.5,549l2.81-9,1.07,13.26L238.72,531l-1.44-11Zm-26.21-16.32-.12-.87q11.15,7.79,23.7,15.61l1.32,9.86-24.9-24.6Zm.57,4.89,25,24.67,2.88,21.54c-7.88-6-16.25-12.65-24.76-19.67l-3.11-26.54ZM185.69,490.5l8.61,1L209,505.91l3.16,27C203.8,526,195.36,518.79,187,511.28l-1.28-20.78Zm-2.38-.26,1.17,18.82c-7.66-6.92-15.27-14-22.57-21.13l21.4,2.31Zm-54.05-58L153.89,480c-7.55-7.66-14.73-15.33-21.34-22.87l-3.29-24.9Zm25.17-37.55v57.8a376.41,376.41,0,0,1-26.07-27.85l-.08-.16.08-8.52,15.37-29.32q5.09,3.92,10.7,8.05Zm29.4-11.57-26.35-1.56,6.57-111.28a111.82,111.82,0,0,1,26.1,4.22L183.83,383.1Zm10.06.59-7.75-.42,6.32-108.13A167.92,167.92,0,0,1,219,285.8l-6.91,89.14-18.24,8.75Zm17.18,5.23c-4.76-.95-9.34-1.76-13.63-2.49L197,386l14.84-7.18-.76,10.06Zm29.22,6.76c-9.57-2.53-18.59-4.61-26.91-6.29l.9-11.69,28.23-13.59-2.22,31.57ZM267.4,352.1l-3.76,50.45c-4.12-1.34-8.37-2.7-12.88-4-2.76-.78-5.48-1.55-8.17-2.27l2.33-33.36L267.4,352.1Zm2.9-38.85-2.6,34.88L245.2,359l4-57.14c6.2,3.24,13.91,7.26,22.56,11.66l-1.45-.27ZM288.73,338l-11.24,5.42,1.95-26c3.33,1.66,6.71,3.4,10.2,5.14L288.73,338Zm2.42-1.16.78-13.15c4.29,2.15,8.66,4.28,13.05,6.47l-13.83,6.68Zm24.31,16.72-3.81,68.53c-8.27-3.78-16.4-7.44-25-11l.06-1.62,4.22-68.68,18-8.67c.19.08.38.18.56.24l6,21.22Zm.42-7.62-3.41-12.15c1.3.66,2.67,1.3,4,2L315.88,346Zm23.4,83-21.42-76.06.85-16.08c8.64,4.15,17.24,8.18,25.55,12l-5,80.18Zm24.45,24.77L351,443.22c4.06,1.59,8.33,3.24,12.79,4.84l-.07,5.71Zm24.81,20.6-22.48-18.68.08-6.78c7.13,2.58,14.82,5.1,23.2,7.64l-.8,17.82Zm22.38-11.83-14.78,18.14-5.34-4.45.85-19c6,1.79,12.46,3.57,19.27,5.3Zm2.7-3c-7.77-2-15-4-21.72-5.94l6.63-83.53c5.24,1.76,13.18,4.4,23,7.56l-7.94,81.91Zm31.13-74.71-5.91,80.54c-8.08-1.71-15.64-3.46-22.73-5.23l7.94-81.71c6.24,2,13.18,4.14,20.7,6.4ZM469,411.47,455.89,392l-4.54-5.19c6.09,1.78,12.44,3.61,19,5.48L469,411.47ZM492.38,472l-9.49-24.07-12.14-24.84,2.07-30c7.61,2.13,15.48,4.26,23.52,6.32l-4,72.63Zm19-59.73-16.46,59.08L498.86,400q6.5,1.71,13.1,3.29l-.56,9Zm-.1,50,5.32-57.83c2.84.67,5.71,1.36,8.56,2L511.3,462.21Zm1.34,17.3L510,477.58l17.55-70.66c3.36.74,6.69,1.47,10,2.15l-3.1,53.52-21.85,16.92Zm20.75,2.42,0,1.05-5.62-.91c-3.43-.54-7-1.15-10.9-1.77l17.42-13.48-.86,15.11Zm31.15,6.67c-10.75-2.2-19.61-3.73-28.85-5.25l0-1.18,1-17.23,30.56-23.62-2.73,47.28ZM570,435.18l1.13-19.87c7.18,1.23,13.87,2.33,20.19,3.35L570,435.18ZM592.25,422,571,490c-1.41-.31-2.8-.63-4.18-.91h0l2.86-49.66L592.25,422Zm9.06,75.13c-3.51-.88-6.81-1.71-9.95-2.47l5.71-75c.27.05.55.07.82.14l8,12-4.54,65.34Zm32.13-23.72L631.29,505c-3.58-1-7.22-2-11-2.95-6-1.6-11.58-3-16.73-4.33L608,435l25.47,38.42Zm.28-4.6-25.41-38.42.62-8.8c10.05,1.67,19.11,3.22,27.69,4.77l-2.9,42.45Zm28.16,42.46-26-39.25L639,426.78c8.77,1.6,17.08,3.27,25.52,5.2l-2.59,79.28Zm12.86-3.76-10.59,6.14,2.66-81.14q5.76,1.32,11.74,2.8l-3.81,72.2Zm20.38-11.86-10.67,6.23,3.39-64.17c2.85.76,5.81,1.56,8.83,2.42l-1.55,55.52Zm2.41-1.4L699,440.78c8.57,2.45,17.87,5.24,28.28,8.52l-.57,28-29.2,16.95Zm28,45.23c-8.29-3.84-17.95-8.07-28.91-12.46l.79-28.77,29.26-17-1.14,58.22Zm33,17.06c-4.13-2.41-14.57-8.39-30.67-16l1.21-60.68,31.07-18.06-1.61,94.72Zm2.35.68,1.6-95a179.68,179.68,0,0,1,33.08,18.5L793,553.13l.07,1.73c-9.3,1-20,1.82-32.19,2.35Zm-30.75,45-2.41-40.69h1.72q15.75,0,29.22-.61l1.48,36.17c-9.43,1.74-19.48,3.47-30,5.13Zm-33.61,8.51c11-1.42,21.57-2.93,31.72-4.53l5.65,21.46-35.29-9-2.08-7.92Zm-11.71,1.44c3.15-.35,6.27-.76,9.37-1.13l1.77,6.9-10.52-2.67-.62-3.1Zm-50.48,4.71q11.94-.79,23.6-1.88L636.5,627.54l-2.18-10.64Zm-29.71,1.52c9.18-.32,18.31-.78,27.34-1.37l2.39,11.74-25.79,15.06-3.94-25.43Zm-8.82.25c2.14-.08,4.29-.12,6.43-.21l4.13,26.7-9.43,5.5-1.13-32ZM566,561.92l17.19-12.22,7,1,3.09,64.33c-8.11.15-16.24.19-24.37.06L566,561.92Zm-28,49.74-1.57-28.72,27.36-19.43,2.8,51.58c-9.43-.16-18.86-.51-28.23-1.09l-.36-2.34Zm-25,.22-.41-12,21.6-15.35,1.51,27.69.24,1.61q-11.55-.75-22.94-2Zm-2.29,3.37,6.84,34-17.91-35.38c3.68.48,7.36,1,11.07,1.37Zm-91.72-24.71-.8-10.57,20.25-50.44,1,68.65c-6.83-1.72-13.51-3.46-20.11-5.28l-.31-2.36ZM416,585.27l.46,5.93.13,1c-1-.3-2-.58-3-.84l2.44-6.06Zm-21.26.53-.19-1.85L389.67,506c6.77,2.06,13.71,4.1,20.77,6.09v.2l5.11,67.34-4.43,11c-5.53-1.58-11-3.18-16.39-4.84Zm.49,3.84c4.52,1.39,9.14,2.78,13.78,4.09l-11.7,14-2.08-18.06Zm-24.31-7.85c7.09,2.44,14.37,4.78,21.83,7.07l2.44,21.33-15.8,18.69-6-6.76-2.46-40.33Zm-28.36-10.31c8.38,3.26,17,6.41,25.95,9.48l2.36,38.28L344.06,589l-1.51-17.54Zm-12.57-5c3.35,1.38,6.7,2.72,10.13,4l1.35,15.5-14.27-16.11L330,566.5Zm-9-3.71,2.72,6.81-.38.46.26.32-7.28,15-3-25.89c2.55,1.1,5.11,2.19,7.71,3.29Zm-8.34-20.85,6.52,16.3c-2.12-.94-4.25-1.81-6.35-2.74l-.17-13.56ZM283.87,470.1l26.36,65.79.25,18.55c-9.4-4.17-18.47-8.44-27.11-12.76l.5-71.58ZM208.38,501v0Zm-23.12-17.32c1.51,1.17,3,2.41,4.61,3.6l-4.41-.46-.2-3.14Zm-28.09-24.34c1.49,1.44,3,2.86,4.62,4.3,6.33,5.8,13.3,11.84,21,18.06l.31,4.86L159.17,484l-2-24.6Zm-2.57-2.43,1.83,22.11-22.36-43.34c6.12,6.8,12.93,13.92,20.53,21.23Zm2.61-71.18c6.4.3,15.28.91,26.31,2.32l-1.28,21.69c-9.28-6-17.73-11.77-25.4-17.35l.37-6.66Zm52.84,16-1.83,23.8q-12.63-7.29-23.71-14.36l1.35-22.81q5.14.69,10.85,1.63l13.34,11.74Zm.3-3.89L202.6,391c2.63.46,5.37,1,8.17,1.51l-.42,5.33Zm28.06,24.75-25.84-22.8.5-6.8c8.37,1.7,17.36,3.75,27,6.31l-1.62,23.29Zm22.25,19.63-20-17.67,1.7-24.64c2.64.7,5.31,1.43,8,2.23,4.58,1.3,8.89,2.66,13,4l-2.69,36Zm23.49,17.29,2.29-44.73c8,3.3,15.56,6.68,23.18,10.19l-25.47,34.54Zm31.16-35.74-1.37-.61v-.08l3.48-62.57,20.74,73.53c-8-3.42-15.46-6.87-22.85-10.27Zm48,70-1.71-.56.69-1.51-19.21-51,20.6,17.12-.37,35.95ZM387.82,491l-7,8.57q-7.66-2.41-15.12-4.89l.35-34.84,22.34,18.56-.53,12.6Zm2.44-3,.35-7.71,3.52,3-3.87,4.76Zm-6.43,12.57,3.73-4.62-.25,5.68c-1.19-.38-2.34-.72-3.48-1.06ZM367.14,521l14.23-17.51c2,.59,3.94,1.22,5.92,1.81l4.92,79.2.06.57c-7.36-2.28-14.6-4.61-21.6-7l-3.53-57Zm-27.39,33.59.17,12.17c-2.56-1-5.13-2-7.62-3l7.45-9.14Zm-28-75.73c1.58.6,3.16,1.25,4.75,1.86L323.22,560c-.26-.09-.5-.2-.73-.3l-9.95-24.87-.82-56Zm-2.36-.94.76,50.88L285.83,468.1q11.37,4.92,23.53,9.77Zm-70.08-31.63c6.58,3.31,13.38,6.7,20.46,10v12.46L238.21,475l1.07-28.8Zm20.6,6.35c-7.1-3.38-13.89-6.75-20.48-10.11l0-1,.91-13,20,17.67-.48,6.4Zm9.33,1.39,6.87,6c-2.37-1-4.68-2.1-7-3.19v-1.26l.12-1.6Zm40.31,20.19c-8.27-3.31-16.26-6.61-24-10l-.77-.69,26.63-36.12-1.89,46.77Zm3.65-32.27,3,34.89-4.33-1.69,1.35-33.2ZM332.4,483c-4.69-1.73-9.28-3.47-13.82-5.21l-4.32-50.65a3.52,3.52,0,0,1,.38.17c7.43,3.41,14.91,6.85,22.86,10.28L332.4,483Zm9.35,47.64-.57-40v-.75q8.08,2.91,16.48,5.76l-15.91,34.95ZM339.69,550l-8.8,10.8,8.68-19.06.12,8.26Zm-5-66.17,4.11-37v38.52l-4.11-1.56Zm-9.9,67.08-5.87-69.23c4.27,1.63,8.65,3.27,13.07,4.94l-7.2,64.29Zm1.32,14-.07.23-.06-.28a.69.69,0,0,1,.13,0Zm-.07-3.8,8.25-73.72c1.51.57,3,1.13,4.51,1.64v1.67l.67,44.88-11.9,26.14a16.25,16.25,0,0,1-1.53-.61Zm39.69-62.75c4.16,1.37,8.36,2.73,12.65,4.12l-11.53,14.12-1.12-18.24Zm-2.41-.79,1.35,21.71L342,547.14l-.14-10.4,18.34-40.24c1,.36,2.11.7,3.16,1.09Zm-4.2-5.16c-6.15-2.06-12.1-4.15-17.95-6.25V442.83l18.36,48.73-.41.87ZM210.55,426l1.72-22.26,25.84,22.84-1,14.67v.07q-14.08-7.23-26.55-14.4V426Zm0,4.77c8.28,4.71,17.08,9.52,26.42,14.27l-1.14,30.73-25.28,7.43V430.75Zm-15.06,56.86c-3.65-2.79-7.16-5.5-10.49-8.22h0l-.57-64.33q11.12,7.06,23.75,14.36l0,54.43-12.73,3.76Zm3.54,2.63,9.19-2.69v9.37c-3.16-2.23-6.2-4.49-9.2-6.68Zm81.66-23.95-11.6,37.17V469.72l11.6-3.43Zm-11.6-.29v-5.35c2.37,1.06,4.75,2.16,7.17,3.24L269.09,466Zm73.2,101.64-.24-15.93,22.89-28.11,3.33,53.56c-9-3.09-17.59-6.28-26-9.52Zm69-70.26-.63,11.1c-7.18-2.06-14.18-4.11-21.06-6.22l.45-9.45,6.34-7.78,14.9,12.35Zm1.8-32.51-1.57,28.57-13.11-10.89,14.72-18.07,0,.39Zm.13-1.35-.19-.42a1.1,1.1,0,0,0,.21,0l0,.38Zm25,52.14L413.9,495.44l1.72-30.13.12-1.54c7.2,1.77,14.8,3.54,22.93,5.28l-.4,46.61Zm29.15-44.36,0-.34,2.95-42.63L481,450l10.22,25.87c-7-1.31-14.83-2.78-23.76-4.56Zm40,7.43c-3.54-.63-7.34-1.26-11.4-2L510.68,424l-3.3,54.78Zm25.67,15.58-13.68-9.94c2.84.49,5.53.89,8.11,1.31,2,.36,3.86.64,5.76,1l-.19,7.66Zm30.77,18.83-.89,2.88-27.59-20,.26-9c9.23,1.55,18.07,3.06,28.82,5.28l-.6,20.87Zm2.56-8.21.37-12.16c1,.21,2.15.41,3.23.67l-3.6,11.49Zm-1.09,38.25.53-18.93,15.23,21.46q-7.74-1.19-15.76-2.53Zm-.08,3.81v-.17c4.48.77,8.93,1.47,13.34,2.16L565.79,558l-.58-11ZM535.09,559.2l11.54-15.57c5.48,1,10.9,1.91,16.24,2.83l0,.6.69,12.57-27.36,19.46-1.08-19.89Zm-22.9,30.95,20.74-28,1,18.56L512.38,596l-.19-5.86Zm-2.12,11.5.35,10c-4.08-.44-8.16-1-12.18-1.51l11.83-8.44Zm-7.21,1.13,6.93-9.36.14,4.35-7.07,5Zm-37.58-76.34c9.62,2.31,19.08,4.5,28.32,6.54l.24,14.42v55.91L465.74,555l-.46-28.56Zm-17.74-4.33,15.19,3.74.45,24.7L446.5,521.83c.34.08.68.16,1,.28ZM413.15,509.2l.54-9.82,17.91,14.86c-6.23-1.62-12.41-3.34-18.45-5Zm25,10.46.11.11.07,3.13-20.63,51.42L413,512.89c8.18,2.28,16.56,4.57,25.1,6.77Zm28.2-22.3.95-22.43c8.94,1.81,16.79,3.28,23.79,4.58l-24.74,17.85Zm65.47,39.81c-7-1.36-14.23-2.78-21.57-4.32L509.79,491l.63-6,1.24-.69,1-.78,20.29,14.72-1.13,38.93Zm2.33,4.15,9.34,1.72-8.63,11.66-.71-13.38Zm-23.79-4.76c7.26,1.48,14.43,2.92,21.42,4.29l.94,16.79L512,585.56l-1.69-49Zm-5.22-1.1,2.65.56,1.82,52.8-11.68,15.79,7.21-69.15Zm-39.24-26.89,26.85-14.22.59,20.22.22,14.71c-9.22-2-18.67-4.22-28.28-6.51l.62-14.2ZM463.44,506l-13.29,7,13.39-9.68-.1,2.64Zm29.16-15.46L466,504.63l.13-3.12,26.23-18.92.22,8Zm3.74,68.64V533.56c2.16.48,4.34,1,6.48,1.43l-6,57-.5-32.81Zm11.19-46.31.19,19.44c-.74-.15-1.47-.3-2.2-.47l2-19Zm-.24-20.64-4.1,39.11c-2.29-.49-4.56-1-6.88-1.46l-.83-27.45-.14-9.5,11.87-6.29.08,5.59ZM447.9,518.5l-.52-.13L463.27,510l-.51,12.2c-4.9-1.19-9.84-2.39-14.86-3.65Zm98,21.32c-3.86-.73-7.76-1.44-11.73-2.21l1.07-37.68,26.13,19-15.47,20.91Zm17.59-18.93.14.17L563,542.81c-4.61-.78-9.26-1.57-14-2.43l14.41-19.49Zm-56.26-38.53v.49l-11.91,6.29-.15-8.89c4.32.77,8.31,1.45,12.06,2.11Zm-42.4-7.91-1.08,24.79-22.92,16.53.38-46.17c8.64,1.79,16.45,3.39,23.62,4.85Zm1.84,130.07-.75-43.92,28,48.13v.74q-13.83-2.07-27.21-5ZM589,497.81l1,49.2c-1.68-.22-3.38-.47-5.08-.72l-19-26.76.16-5.45,6.27-20.1c5,1.1,10.5,2.36,16.61,3.83Zm-15.52-7.28,20.89-67-5.34,70.59c-5.68-1.36-10.83-2.55-15.55-3.58Zm57.71,61.74q-12.4-1.34-25.54-3.09l-2-47.77c5.09,1.25,10.47,2.64,16.35,4.19,3.82,1,7.56,2,11.24,3.06v43.61Zm2.38-46.65,2-29,24.59,37.14q-12.57-4.15-26.57-8.14Zm28.2,12.4,0,37.12q-13.62-1.07-28.25-2.62v-43.2c9.93,2.79,19.34,5.74,28.23,8.7Zm12.38.53c-2.42-.86-4.88-1.72-7.36-2.57l7.7-4.47-.34,7Zm9.22,3.35.83-16L695,499.59l-.73,26.52Q689,524,683.39,521.9Zm10.09,34.53v.66c-3.89-.16-7.87-.38-11.91-.61v0l1.64-30.85c3.8,1.41,7.45,2.8,11,4.22l-.72,26.61Zm34.28-12.1c11.75,5.55,20.43,10.2,25.72,13.17-8.07.3-16.74.41-26,.41l.25-13.58Zm-2.6,13.57c-9.2-.08-19-.26-29.35-.7v-.71l.7-25.76c11,4.41,20.69,8.66,29,12.53l-.32,14.64Zm-29.35,2.93c10.41.45,20.26.63,29.53.71l2.47,41.08c-10.24,1.62-20.95,3.14-32,4.55V560.83Zm-28.7,49.63-.19-1.36L664.29,559l8.05.57,2.53,50.1c-2.58.27-5.14.55-7.76.8Zm5.08-54.57c-2.65-.16-5.35-.35-8-.56l0-36.53c3.39,1.15,6.66,2.26,9.86,3.41l-1.78,33.65v0Zm-66.47-3q13.14,1.75,25.52,3.07l.52,57.5c-9.16.57-18.39,1.05-27.65,1.34l1.61-61.91ZM595.63,615l-3.09-63.93c3.65.51,7.27,1,10.86,1.49l-1.64,62.29c-2,.06-4.08.12-6.13.15Zm38.48-1.74-.54-57.08c9.82,1,19.3,1.92,28.39,2.6l2.64,50.86.17,1.08c-10,1-20.31,1.85-30.66,2.54Zm50.1-4.66-2.47-48.49c4,.23,7.87.45,11.74.61v46.74c-3.06.38-6.15.79-9.27,1.14Zm-82.9-107.81,2,48.1c-3.59-.48-7.24-1-10.91-1.49l-1-49c3.12.76,6.42,1.59,9.93,2.43Zm-133.14-77-3.26,46.88v.13c-7.12-1.43-14.94-3-23.58-4.86l5.81-79.43,7.27,8.32,12.78,19-1.28,5.35,2.26,4.63Zm-184-9.93-2.39,47-12.23-10.77,3-40.68c4,1.45,7.83,2.94,11.58,4.46Zm.19-3.72c-3.72-1.47-7.53-2.95-11.47-4.38l4.35-58.35L288.46,342l-4.08,67.21-.06,1Zm-136.64-24.5c1.62,0,4,0,7.2.06l-.32,5.06c-2.36-1.72-4.65-3.46-6.88-5.12Zm9.09,69.09,0-58.36c7.69,5.55,16.1,11.3,25.34,17.2l.53,63.95c-7.06-5.77-13.52-11.38-19.39-16.76q-3.33-3-6.46-6v0Zm53.78,43.84V486.88l25.14-7.37-1.29,34.78q-12.69-7.92-23.85-15.73Zm26.15,17.15v-.09l1.38-36.81,21.67-6.38V529.2c-8.09-4.46-15.75-9-23-13.49Zm32.53,18.68-.14-1.79V511.8L281.5,472l-.45,68.55c-4-2-8-4.08-11.82-6.12ZM441.86,598.8l-1.05-75.34.83-2.05,1.06-.55s0,0,.05,0l20.52,35.24.84,47.86c-7.58-1.68-15-3.41-22.25-5.19Zm25,9.47c8.46,1.82,17,3.37,25.74,4.67l-21.24,38.33-4.5-43ZM575.61,663l-6.5-44.25c3.18,0,6.38.12,9.6.12,4.9,0,9.85-.07,14.75-.17L594.61,652l-18.76,11Zm186.82-66.3L761,560.85c12.23-.54,23-1.41,32.31-2.37l1.87,31.67c-9.74,2.07-20.72,4.3-32.73,6.54ZM363.83,444.34c-7.84-2.86-15-5.75-21.84-8.63l-.74-.63,5.32-85.24c8.37,3.79,16.4,7.27,23.72,10.2l-6.46,83v1.31ZM141.6,385l-13.16,25.09.37-35.47c3.94,3.31,8.18,6.77,12.79,10.38Zm-38.94,4.33.56-38.57c5.75,6,13.44,13.4,23.25,21.85l-.43,42L123.75,419a297.13,297.13,0,0,1-20.93-28.93l-.16-.77ZM93,334.74c1.9-12.9,5.25-24.62,9.84-34l-1.74,43.33c-3.77-4.09-6.42-7.26-8.1-9.34Zm-1.48,35.2a180.44,180.44,0,0,1,1-31.2c1.92,2.31,4.69,5.55,8.47,9.58l-.54,37.83c-4.61-7.63-7.46-13.24-8.89-16.21ZM104,397a328.85,328.85,0,0,0,22.12,29.53l3.6,27.31a265.42,265.42,0,0,1-20.67-27.17L104,397ZM298.49,594.19c-4-2.28-8-4.67-12-7.06l-.35-5.08,12.36,12.14Zm10.26,5.8-22.95-22.6-2.23-31.8q13,6.51,27.23,12.79l3.57,31-5.29,10.85c-.1-.08-.21-.12-.33-.22Zm488.7-10.35-1.84-31.4c14.66-1.58,25.64-3.47,32.92-4.94L828,582.59c-7.5,1.86-17.91,4.31-30.59,7Zm42.37-10.09c-1.94.52-5.11,1.38-9.4,2.46l.46-29.22c3.39-.73,5.76-1.33,7.16-1.69a110.68,110.68,0,0,1,1.78,28.45Zm-2-49.77c-12.47-41.47-43.45-66.61-107-86.78-56.62-18-80.76-21.94-133.63-30.7l-1-.16-.6-.89-.23.75c-9.67-1.59-20.27-3.33-32.21-5.36-39.56-6.73-83.42-18.67-116.83-28.75a13.87,13.87,0,0,0,.17-4.42c0-.41-.05-.83-.08-1.28a5.13,5.13,0,0,1,2.43.72,6,6,0,0,0,4.36.65l1.34-.34-.38-2c-.71-3.46-3-4.09-4.87-4.54-1.11-.32-2.3-.6-2.8-1.45v-8.68l-2.18,5.91c-.93,2.52-1.07,5.95-1.23,9.24-.08,1.78-.17,3.55-.37,5.12-2.47-.74-4.88-1.5-7.19-2.21l-1.7-.74,0,.21c-24.62-7.67-41.07-13.46-41.47-13.61C349.59,348,235.73,287.09,234.65,286.53c-37.94-22.46-72.47-28.84-101.24-19.3l-1.07-.12,0,.51a83.45,83.45,0,0,0-15.47,7.2C88.67,291.88,80.61,353,90.73,399.34c11.81,54,121,145.36,172.89,181l0,.37.43-.1c3.77,2.59,7.25,4.92,10.33,6.87,94.54,59.57,178.81,82.8,300.55,82.8,125.32,0,244.65-43,257.9-57.94,14-15.7,15.81-46.6,5-82.59Z"/><path class="cls-1" d="M424.64,221.9l-.21.06c0-1-.06-1.9,0-2.78l.23,2.72ZM416.11,361c.65,3.35-1.09,3.06-.77,6,1.13,2.87.86-6.59,3.07-6,3.52.53,2,8.84,5.38,9.57,1.47-1.61-.7-7.59-.78-10.76-2.89.88-3.65-1.49-6.13-1.23-.06-.43-.08-.84-.11-1.29L452,367.7v-121l-5.74-4.92-2.44-23.36-5-1.77c-4.87-2-9.48-4.46-15-5.4-1.53,2.36.09,9.7-1.79,11.52l-1.29.43v1.21c-3.32.83-.71,10.87-1.52,15.59.75-.91,1.22-2.91,1.52-5.19V240L417,242.43c0-.8-.08-1.62-.14-2.44-4.21,3.61-2.28,12.86-2.28,19.13-.13,29.75-1,66.26-1.57,97.08-.8,4.41,2.59,2.31,3.08,4.79Z"/><path class="cls-1" d="M588.67,701.11l-10.56-15.43,6.63-10.32,15.11-1.47,1.85,4.33-13,22.89Zm-23.83,5.22,10-15.49,10.75,15.7-20.71-.21Zm-3.07,42.08-11.59-19.22,10-15.6,21.25.19-19.7,34.63Zm-26.3,3.72,11.42-17.79,10.81,18-22.23-.22Zm-4.79-13.19-10.12.07-1-1.65,14.89-23.74,6.05,10.07-9.8,15.25Zm-31.55,49.19L478.34,753.8l43-.21-22.17,34.54Zm-30.79-49.62L465.89,733l14.59-14.17,12,20.34-18.72.09-5.43-.71Zm-13.92,43.94-6.48-32,15.22,2,2.28,5.1-11,24.88Zm-13.57-47.56-16.9-25,22,4,6.62,14.86-7,6.81-4.71-.62Zm-19.61,44.86-8.37-33.87,20.71,2.69-12.34,31.18ZM403,706.06l5.45,1L425.94,733l-16.82-2.23L403,706.06Zm-15.78,36.43,15.25,2,6.58,26.75-21.83-28.77Zm-13.73-18.1L353.16,697l39.38,7.13,6.24,25.23-23.88-3.11-1.38-1.86Zm11.86-49.24,3.36,13.6-20.45-3.67,17.09-9.93Zm67.21,11.94-6.06,12.18-33.86-6.14-11.34-16.82,51.26,10.78Zm10.49,2.21h0l11,18.56L460.54,721l-6.13-13.82,8.67-17.86Zm30.77,16.52,16,26.17-4.48,7-1.51,0,.72-1.06-16-27.08,5.26-5.12Zm31,2.18L513.1,726.76l-13.39-21.91L524.83,708Zm-12.3-20.28,27.16-10.39,1.76,4.23-12.37,19.68-.84-.13-23.47-5.85,7.76-7.54ZM535,665.93l3.37,8.16-19.43,7.44L535,665.93Zm17-1.13-3.38,5.39-5.39,2.07-3.06-7.46ZM575.13,627l0,.91-18.58,29.64H543.63L575.13,627ZM550,688.79,561.19,671l6.74,9.88L555,701l-5-12.24Zm-5.47-13.33,1-.32-.71,1.06-.27-.74Zm4.73,34.6-5.44,8.47-6.1-10.14.65-1,10.89,2.72Zm-8.9-5.89,6.28-10,5,12.12-.38.59-10.92-2.72Zm37.83-39.23-6.92,10.75-6.81-10,10.13-16.14V650l3.6,15Zm46.41-129.28,1.14-30.3,6.67.89-10-42.41-19.47-19.92-11.09-34.61L569,401.52l-5.56,28.56,2.23,58.84,6.66,1.74L569,537.4l3.91,23.37,13.34-8.65,6.11,14.7-5.55,29.44-11.21,11.85-.05,1.26L482.14,700l-10.79-18.31,31.35-70.36-12-.85-31.47,63.29-67.64-14.23-6.5-26.33-3.18,1.88-10.36-3.35L381,662.13l-33.16,19.22L346,681,332.38,560.37l-9.21,2.53,15,133.17,29.26,39.41,47,61.88.76-1.4.71,2.8,4.36-2.64,4,3.8,15.82-39.86,11.19,55.21,19.91-44.89,9.33,20.94,4.66-5,13.8,22.79,31.87-49.67,24.6.25-27.28,47.94,7,9.67L607.1,690.75l1.07,2.55,7.54-17.42,0-.32,3.74-6.6-3-4.25,3.72-58.93,3.9-21.64,2.25-14.73,6.1-15.58,1.65-16.43-9.46-1.74Z"/><polygon class="cls-1" points="340.4 437.84 403.14 401.06 432.89 415.31 469.03 419.5 470.64 406.05 444.05 377.47 420.71 369.68 419.63 385.05 403.3 382.95 399.86 399.08 339.58 434.44 340.4 437.84 340.4 437.84"/><polygon class="cls-1" points="573.66 830.54 382.43 830.54 382.43 790.59 573.66 790.59 573.66 830.54 573.66 830.54"/></svg>
