<svg id="stevnsmuseum" xmlns="http://www.w3.org/2000/svg" xmlns:xlink="http://www.w3.org/1999/xlink" viewBox="0 0 269.94 280.96"><defs><style>.cls-1{fill:#ec671b;}</style><symbol id="New_Symbol_23" data-name="New Symbol 23" viewBox="0 0 135.19 94.61"><polygon class="cls-1" points="70.86 75.14 75 75.8 75.29 76.34 87.98 75.58 87.31 74.81 83.17 75.03 79.81 74.16 73.75 75.14 74.04 74.7 70.86 75.14"/><polygon class="cls-1" points="52.88 64.75 58.36 68.69 60.77 69.01 60.86 70.11 72.59 70.11 73.46 69.23 74.42 67.15 74.9 64.31 73.27 61.14 69.61 61.14 68.65 60.15 67.88 61.25 64.52 60.26 63.27 61.68 63.46 63.22 64.13 64.42 65.58 65.62 59.23 65.07 56.54 64.31 57.59 62.34 59.13 62.56 59.71 61.47 59.04 60.48 58.75 61.03 55.96 60.59 56.73 58.84 54.61 58.29 53.84 58.51 49.61 55.67 50.19 57.85 50.96 58.84 50.77 63.87 52.88 64.75"/><path class="cls-1" d="M78.24,71.17,76.09,70l.8-4.77,2.73-7.15-2.73-1.8L75.1,54.74l-2.55-.22-3.14-1.8L66.69,54l1,.59,1.64-1,3.07,2h2.4L76,56.87l2.79,2-2.6,5.58-.29,3.39L74.61,70l3,2.51h57.6l-6.4-.5C107.79,72,78.24,71.17,78.24,71.17Z"/><path class="cls-1" d="M1.63,94.61l5.58-7L9.13,86.3h3.75L17,84.11l2.11-2.63-1-3.06,5.87-3,.47.32,8.27-1,.58.66,10.58-1.1,1.35-.54L77,73.28l-1.73-1.75-2.21.33-1.16-.55-2.12.11.58-.44H67.69l.39,1.32-1.45-.55-6.44-.44.19,1.09H56.63L52.88,71l-9.62-1.86-1.44-1.31-3.75-1.53.1.22L37,65.84l-15.29-3L20.09,63,14.9,64.86l-7,1.31,1.63,1.42-5.19-.66L1.63,68.25V55.67l.67,2.08L18,58.51l3.55-.43,1.35,1.2,4.52,1.86,1-.66,2.41.66h.86l2.5,1.09,4.23,1,5.19,3.61,1.54.1,1,.66,2.12.77,3.56.33-1.45-1.1.49-.55L48,64.75,48.17,62l-1.92-8.2-2.7.44-3.84-3.07-.77.22L34.8,47.14l-.19-1.32-3.75-2.51-4.23-2-4.13,8,.38-4.26-1.73-.77,3.75-3.72-4.33-2.84,1.83-3.28-.87-1.64-3.75-3.5-2.5-1.43-2-3.82L7.4,18.48,2.78,16.73,1.63,16V2.25L6.9,1.51l.1.55L24.13,9.51l-.29,4,1,2.52L24,18.26l2.59,2.84L26.05,23l1.45,5.8-.2,4.59.29,1.86,1.35-.76.57.11.39-.33,3.27-.11,5.48,1.31.87,2.19.67-.44,4,1v1.64l2,.76.48,1.32H48l.77,1.53-.1,1.2.48,1.53.58-.66,1.34,2.63L51,50.2l2.59,1.09,1.54-.54,8.75,1.53L66.69,54l-2.77-2.83-7-1L54,49.45H52.41l-1-4-1.17-1.85L48.8,40.79l-2.1-.91L44.49,37l-4.32-1.13-1-1.35-3.34-1.35a51.7,51.7,0,0,1-5.3,0,3.12,3.12,0,0,0-2.55.68l.26-5.51-.73-5,.58-3L25,17.9l1.17-3-1.17-2V7.5L7.82,0,0,1M51.25,72.62l.38.88-.58-.66Zm-9.14-15.2,1.35,2,1.73,1.53,2.4.66-1.82.32.19.77-4-.77L41.44,61l-.1.33L40,56ZM14.8,75.14l.1-1,1.15-.44.1,1.09L18,78.09l-2.22-2.73Z"/></symbol></defs><title>Artboard 9</title><use width="135.19" height="94.61" transform="translate(9.06 20.8) scale(1.84)" xlink:href="#New_Symbol_23"/></svg>
