<svg id="stevnsmuseum" xmlns="http://www.w3.org/2000/svg" xmlns:xlink="http://www.w3.org/1999/xlink" viewBox="0 0 277.8 289.13"><defs><style>.cls-1{fill:#fff;}</style><symbol id="New_Symbol_23" data-name="New Symbol 23" viewBox="0 0 135.21 106.96"><polygon class="cls-1" points="70.86 31.82 75 31.16 75.29 30.62 87.98 31.38 87.31 32.15 83.17 31.93 79.81 32.8 73.75 31.82 74.04 32.26 70.86 31.82"/><polygon class="cls-1" points="52.88 42.21 58.36 38.27 60.77 37.95 60.86 36.85 72.59 36.85 73.46 37.73 74.42 39.81 74.9 42.65 73.27 45.82 69.61 45.82 68.65 46.81 67.88 45.71 64.52 46.7 63.27 45.28 63.46 43.74 64.13 42.54 65.58 41.34 59.23 41.89 56.54 42.65 57.59 44.62 59.13 44.4 59.71 45.49 59.04 46.48 58.75 45.93 55.96 46.37 56.73 48.12 54.61 48.67 53.84 48.45 49.61 51.29 50.19 49.11 50.96 48.12 50.77 43.09 52.88 42.21"/><path class="cls-1" d="M78.24,35.79,76.09,37l.8,4.77,2.73,7.15-2.73,1.8L75.1,52.22l-2.55.22-3.14,1.8L66.69,53l1-.59,1.64,1,3.07-2h2.4L76,50.09l2.79-2-2.6-5.58-.29-3.39L74.61,37l3-2.51h57.6v1.36Z"/><path class="cls-1" d="M19.13,25.48l-1,3.06,5.87,3,.47-.32,8.27,1,.58-.66,10.58,1.1,1.35.54L77,33.68l-1.73,1.75-2.21-.33-1.16.55-2.12-.11.58.44H67.69l.39-1.32-1.45.55-6.44.44.19-1.09H56.63L52.88,36l-9.62,1.86-1.44,1.31-3.75,1.53.1-.22L37,41.12l-15.29,3L20.09,44,14.9,42.1l-7-1.31,1.63-1.42L4.34,40,1.63,38.71V51.29l.67-2.08L18,48.45l3.55.43,1.35-1.2,4.52-1.86,1,.66,2.41-.66h.86l2.5-1.09,4.23-1,5.19-3.61,1.54-.1,1-.66,2.12-.77,3.56-.33-1.45,1.1.49.55L48,42.21,48.17,45l-1.92,8.2-2.7-.44-3.84,3.07-.77-.22L34.8,59.82l-.19,1.32-3.75,2.51-4.23,2-4.13-8,.38,4.26-1.73.77L24.9,66.4l-4.33,2.84,1.83,3.28-.87,1.64-3.75,3.5-2.5,1.43-2,3.82L7.4,88.48,2.78,90.23,1.63,91v13.75l5.27.74.1-.55,17.13-7.45-.29-4,1-2.52L24,88.7l2.59-2.84L26.05,84l1.45-5.8-.2-4.59.29-1.86,1.35.76.57-.11.39.33,3.27.11,5.48-1.31.87-2.19.67.44,4-1V67.1l2-.76L46.67,65H48l.77-1.53-.1-1.2.48-1.53.58.66,1.34-2.63-.07-2,2.59-1.09,1.54.54,8.75-1.53L66.69,53l-2.77,2.83-7,1L54,57.51H52.41l-1,4-1.17,1.85L48.8,66.17l-2.1.91L44.49,70l-4.32,1.13-1,1.35-3.34,1.35a52.05,52.05,0,0,0-5.3,0A3.14,3.14,0,0,1,28,73.11l.26,5.51-.73,5,.58,3L25,89.06l1.17,3-1.17,2v5.4L7.82,107,0,106V0H1.63V12.35l5.58,7,1.92,1.31h3.75L17,22.85Zm32.12,8.86.38-.88-.58.66Zm-9.14,15.2,1.35-2L45.19,46l2.4-.66L45.77,45l.19-.77L42,45l-.52.93-.1-.33L40,51ZM14.8,31.82l.1,1,1.15.44.1-1.09L18,28.87,15.78,31.6Z"/></symbol></defs><title>stevnsklint1</title><use width="135.21" height="106.96" transform="matrix(1.84, 0, 0, -1.84, 12.99, 220.62)" xlink:href="#New_Symbol_23"/></svg>
