<?xml version="1.0" encoding="utf-8"?>
<!-- Generator: Adobe Illustrator 23.0.3, SVG Export Plug-In . SVG Version: 6.00 Build 0)  -->
<svg version="1.1" xmlns="http://www.w3.org/2000/svg" xmlns:xlink="http://www.w3.org/1999/xlink" x="0px" y="0px"
	 viewBox="0 0 277.8 289.1" style="enable-background:new 0 0 277.8 289.1;" xml:space="preserve">
<style type="text/css">
	.st0{fill:#FFFFFF;}
</style>
<symbol  id="New_Symbol_23" viewBox="-67.6 -66.9 135.2 107">
	<polygon class="st0" points="3.3,8.2 7.4,8.9 7.7,9.4 20.4,8.6 19.7,7.9 15.6,8.1 12.2,7.2 6.1,8.2 6.4,7.8 	"/>
	<polygon class="st0" points="-14.7,-2.2 -9.2,1.7 -6.8,2.1 -6.7,3.2 5,3.2 5.9,2.3 6.8,0.2 7.3,-2.6 5.7,-5.8 2,-5.8 1,-6.8
		0.3,-5.7 -3.1,-6.7 -4.3,-5.3 -4.1,-3.7 -3.5,-2.5 -2,-1.3 -8.4,-1.9 -11.1,-2.6 -10,-4.6 -8.5,-4.4 -7.9,-5.5 -8.6,-6.5
		-8.9,-5.9 -11.6,-6.4 -10.9,-8.1 -13,-8.7 -13.8,-8.4 -18,-11.3 -17.4,-9.1 -16.6,-8.1 -16.8,-3.1 	"/>
	<path class="st0" d="M10.6,4.2L8.5,3.1l0.8-4.8L12-8.9l-2.7-1.8l-1.8-1.5l-2.6-0.2l-3.1-1.8l-2.7,1.3l1,0.6l1.6-1l3.1,2h2.4
		l1.2,1.3l2.8,2L8.6-2.5L8.3,0.9L7,3.1l3,2.5h57.6V4.2L10.6,4.2z"/>
	<path class="st0" d="M-48.5,14.5l-1-3.1l5.9-3l0.5,0.3l8.3-1l0.6,0.7l10.6-1.1l1.3-0.5L9.4,6.3L7.7,4.6L5.5,4.9L4.3,4.4L2.2,4.5
		L2.8,4H0.1l0.4,1.3L-1,4.8l-6.4-0.4l0.2,1.1H-11l-3.8-1.4l-9.6-1.9l-1.4-1.3l-3.8-1.5l0.1,0.2l-1.2-0.7l-15.3-3l-1.6,0.2l-5.2,1.9
		l-7,1.3l1.6,1.4L-63.3,0L-66,1.3v-12.6l0.7,2.1l15.7,0.8l3.5-0.4l1.4,1.2l4.5,1.9l1-0.7l2.4,0.7h0.9l2.5,1.1l4.2,1l5.2,3.6l1.5,0.1
		l1,0.7l2.1,0.8l3.6,0.3l-1.5-1.1l0.5-0.6l-2.9-2.3l0.2-2.8l-1.9-8.2l-2.7,0.4l-3.8-3.1l-0.8,0.2l-4.1-4.3l-0.2-1.3l-3.8-2.5l-4.2-2
		l-4.1,8l0.4-4.3l-1.7-0.8l3.8-3.7l-4.3-2.8l1.8-3.3l-0.9-1.6l-3.8-3.5l-2.5-1.4l-2-3.8l-5.9-5.6l-4.6-1.8l-1.2-0.7v-13.8l5.3-0.7
		l0.1,0.5l17.1,7.5l-0.3,4l1,2.5l-0.8,2.2l2.6,2.8l-0.5,1.9l1.5,5.8l-0.2,4.6l0.3,1.9l1.4-0.8l0.6,0.1l0.4-0.3l3.3-0.1l5.5,1.3
		l0.9,2.2l0.7-0.4l4,1v1.6l2,0.8l0.5,1.3h1.3l0.8,1.5l-0.1,1.2l0.5,1.5l0.6-0.7l1.3,2.6l-0.1,2l2.6,1.1l1.5-0.5l8.8,1.5l2.8,1.7
		l-2.8-2.8l-7-1l-2.9-0.7h-1.6l-1-4l-1.2-1.8l-1.4-2.8l-2.1-0.9l-2.2-2.9l-4.3-1.1l-1-1.3l-3.3-1.3c-1.8,0.1-3.5,0.1-5.3,0
		c-0.9-0.2-1.8,0.1-2.5,0.7l0.3-5.5l-0.7-5l0.6-3l-3.1-2.4l1.2-3l-1.2-2v-5.4l-17.2-7.5l-7.8,1V40h1.6V27.7l5.6-7l1.9-1.3h3.8
		l4.1-2.2L-48.5,14.5z M-16.4,5.7l0.4,0.9l-0.6-0.7L-16.4,5.7z M-25.5-9.5l1.3,2l1.7,1.5l2.4,0.7L-21.8-5l0.2,0.8l-4-0.8l-0.5-0.9
		l-0.1,0.3l-1.3-5.3L-25.5-9.5z M-52.8,8.2l0.1-1l1.2-0.4l0.1,1.1l1.8,3.3l-2.2-2.7L-52.8,8.2z"/>
</symbol>
<g id="Lag_2">
	<rect width="277.8" height="289.1"/>
</g>
<g id="stevnsmuseum">
	<title>Artboard 9</title>

		<use xlink:href="#New_Symbol_23"  width="135.2" height="107" id="XMLID_1_" x="-67.6" y="-66.9" transform="matrix(1.8397 0 0 1.8397 137.3648 147.01)" style="overflow:visible;"/>
</g>
</svg>
