<svg id="stevnsmuseum" xmlns="http://www.w3.org/2000/svg" viewBox="0 0 277.8 243.96"><defs><style>.cls-1{fill:#387288;}</style></defs><title>Tegnebræt 1</title><path class="cls-1" d="M253.6,144.5l-1.15-4.79c1.26-.32,2.21-.56,2.85-.74a15.56,15.56,0,0,1-1.71,5.53Zm-1.24,1.78c-1,1.09-3.82,2.69-8.17,4.46l-1.95-8.67c3.9-.84,7.11-1.6,9.47-2.18l1.33,5.52a10.07,10.07,0,0,1-.68.87Zm-176.2-8.8-.28-3.33,3.66,3.6.12,1.92-2.49-1.54C76.86,137.92,76.5,137.7,76.16,137.48Zm-9.74-6.92-.87-6.6,7,7,.38,4.39c-2-1.4-4.22-3-6.57-4.79ZM19.91,80a54,54,0,0,1-1-6.33c.64,1.19,1.52,2.8,2.73,4.75l1.58,9.32A26.86,26.86,0,0,1,19.91,80Zm7.4-36.48a24.49,24.49,0,0,1,4.22-2L29.87,71c-3.16-2.74-5.59-5.11-7.37-7l.63-16a12.59,12.59,0,0,1,4.17-4.54ZM41,39.9,38.89,75.08l-3.58-.21-.23.44C33.44,74,32,72.81,30.57,71.65l1.72-30.42a26.2,26.2,0,0,1,8.38-1.34H41Zm26.95,9.66L66.6,68.37l-8.91,4.29L59.81,45.2c1.22.64,2.47,1.3,3.72,2,.08,0,1.71.92,4.38,2.32Zm47.23,21.7L113,97.71c-2.68-.81-5.13-1.63-7.41-2.45v-.61l2-26c2.25.89,4.27,1.62,5.94,2.1l1.54.54Zm54.57,14.43-.4,7-9.65,7.47L160.59,84c2.43.48,4.83.94,7.2,1.35l1.93.33Zm12,2-.13,1.9-1.43-2.15c.53.1,1.06.17,1.56.26ZM229.2,99.9,220.43,105l.15-8.17.1,0c3.08,1,5.92,2,8.52,3.07Zm23,19.62-.32,8.77c-2.29.47-5.79,1.06-10.5,1.58l0-.49.79-22.36a30.74,30.74,0,0,1,10,12.5Zm2.43,8.13c-.42.1-1.08.27-2,.48l.25-6.88c.2.57.39,1.15.58,1.74C253.94,124.58,254.33,126.14,254.64,127.65Zm-23.55,16.67c3.83-.72,7.32-1.43,10.41-2.08l2,8.8c-3,1.19-6.57,2.46-10.67,3.73l.26-.13-2-10.32Zm-8.31,8.88-1.88-7.13c3.32-.53,6.49-1.07,9.46-1.62l2,10.46-1.34.4-8.24-2.11Zm.31,1.26,5.79,1.47c-1.62.46-3.3.92-5,1.36l-.73-2.85Zm-12-3.07,11.15,2.84.85,3.25q-4.68,1.19-9.84,2.25l-2.16-8.35Zm-4.24-1.09,3.43.86,2.24,8.72c-1.18.25-2.38.48-3.58.7l-2.07-10.28ZM201,148.81l2.6.66,2.31,11.65-2.93.48-2-12.79ZM191.36,154l8.9-5.2,2,12.88c-3,.46-6,.86-9.06,1.2Zm-8.9,5.21,8.23-4.8,1.75,8.55c-3.13.35-6.3.62-9.53.81l.26-.09-.7-4.47Zm-3.79,2.23,3.1-1.83.63,4.19-3.68.19-.07-2.55Zm-.74.42L178,164c-1.3,0-2.61.07-3.91.09l3.84-2.24Zm-17.68-12.08c2.93.18,5.87.3,8.83.34v.14l2,13.86q-4.46,0-8.73-.16l-2.13-14.18Zm-5,13.43-.35-.69-2.72-13.41c2.42.25,4.86.48,7.32.63l2.13,14.2c-2.27-.08-4.49-.2-6.69-.35l.31-.38ZM147.06,149l7.06,13.92.13.68c-1.32-.1-2.63-.2-3.93-.32ZM139,161l.35.48,6.94-12.5,3.23,14.23c-3.57-.31-7-.74-10.44-1.26l-.09-.95Zm-9.23-15.94q3.41.84,6.94,1.62l1.58,15.14c-2.3-.36-4.55-.76-6.78-1.21l-1.73-15.55Zm-7.12-1.84c2.05.56,4.15,1.1,6.28,1.64l1.75,15.59q-3-.63-5.9-1.35l.09,0-2.21-15.86Zm-7,4.74,4.55-5.41,1.58.44L124,158.91q-3.72-.94-7.34-2.08l-1-8.88Zm-5.18,6.14,4.51-5.36.91,7.86c-1.56-.5-3.1-1-4.64-1.56v0l-.79-.9ZM108,152.77l1.19,1.33-.12.14-1-.37Zm-9.23-10.44,8.42,9.51.11,1.73c-2.62-1-5.24-2.11-7.84-3.3ZM90,141.14l2.41-4.94v.08l.33-.73L98,141.39l.74,8.53q-4.05-1.86-8.1-4L90,141.14Zm-.6,1.26.36,3.09-1.48-.79ZM75.08,124.74c1.19.64,2.41,1.27,3.66,1.9l.68,9.66-3.68-3.63-.66-7.91Zm-10.21-5.82c2.24,1.38,4.61,2.77,7.1,4.14v.12l-1.37,4.43.66.49.89-2.85.34,4.19-7.17-7Zm-8.29-5.16,0-.27Q60.07,116,64,118.42l.42,3.12-7.87-7.78Zm.18,1.55,7.9,7.8.91,6.81c-2.49-1.89-5.14-4-7.83-6.22l-1-8.39Zm-8.21-5.72,2.72.32,4.65,4.56,1,8.54c-2.64-2.19-5.31-4.47-8-6.84l-.4-6.58Zm-.75-.08.37,5.95c-2.43-2.19-4.83-4.42-7.14-6.68ZM30.7,91.17l7.79,15.1c-2.39-2.42-4.66-4.85-6.75-7.23l-1-7.88Zm8-11.88V97.57a116.34,116.34,0,0,1-8.24-8.81l0-.05,0-2.69,4.86-9.28c1.07.83,2.2,1.68,3.38,2.55ZM48,75.63l-8.33-.49,2.07-35.2A35.53,35.53,0,0,1,50,41.28L48,75.62Zm3.18.19-2.45-.14,2-34.2a53.46,53.46,0,0,1,8.39,3.37L56.9,73l-5.77,2.77Zm5.44,1.65c-1.51-.3-3-.56-4.32-.79l-.13-.14,4.69-2.27-.24,3.18Zm9.24,2.14c-3-.8-5.88-1.46-8.51-2l.28-3.7,8.93-4.3-.7,10Zm8.57-13.79-1.19,16c-1.3-.43-2.64-.86-4.07-1.27l-2.59-.72.74-10.55Zm.92-12.29-.82,11L67.37,68l1.27-18.07c2,1,4.39,2.3,7.13,3.69l-.46-.09Zm5.83,7.83-3.56,1.71.62-8.22c1,.53,2.12,1.08,3.23,1.63ZM81.9,61l.25-4.16,4.13,2.05Zm7.69,5.29L88.39,88c-2.62-1.2-5.19-2.36-7.91-3.48l0-.52,1.33-21.72,5.7-2.74.17.08,1.9,6.71Zm.14-2.41L88.65,60l1.26.63-.18,3.23Zm7.4,26.25L90.35,66.07,90.62,61c2.73,1.31,5.45,2.59,8.08,3.8L97.12,90.14ZM104.86,98l-4-3.32c1.29.5,2.64,1,4,1.53l0,1.81Zm7.85,6.51-7.11-5.91,0-2.14c2.26.82,4.69,1.61,7.34,2.42l-.25,5.63Zm7.07-3.74-4.67,5.74-1.69-1.41.27-6c1.9.57,3.94,1.13,6.09,1.68Zm.86-1q-3.69-.94-6.87-1.88l2.1-26.42c1.65.56,4.16,1.4,7.27,2.4l-2.51,25.9Zm9.84-23.63-1.86,25.48c-2.56-.55-5-1.1-7.19-1.66l2.51-25.84C125.91,74.76,128.11,75.44,130.48,76.15Zm7.67,8.45L134,78.44l-1.44-1.64,6,1.73Zm7.4,19.14-3-7.61-3.84-7.86.65-9.49c2.41.68,4.9,1.35,7.44,2l-1.26,23Zm6-18.89-5.21,18.69L147.6,81c1.37.36,2.75.71,4.14,1l-.18,2.85Zm0,15.81,1.68-18.29,2.71.64-4.39,17.64Zm.42,5.48-.83-.63,5.55-22.35,3.17.68-1,16.93-6.91,5.35Zm6.56.76v.33l-1.77-.28-3.45-.56,5.51-4.27-.27,4.78Zm9.86,2.11c-3.4-.7-6.21-1.18-9.13-1.66V107l.32-5.45,9.66-7.47-.86,15ZM170.1,92.1l.36-6.29c2.27.39,4.38.74,6.38,1.06Zm7-4.17-6.72,21.5-1.33-.28h0L170,93.44ZM180,111.69l-3.15-.78,1.81-23.72.26,0,2.53,3.8L180,111.69Zm10.16-7.5-.68,10c-1.13-.32-2.28-.63-3.48-.93-1.89-.51-3.66-1-5.29-1.37L182.12,92l8,12.15Zm.09-1.46-8-12.15.19-2.78c3.18.53,6.05,1,8.76,1.51l-.92,13.42Zm8.91,13.43-8.22-12.41,1-14.31c2.78.51,5.4,1,8.07,1.64l-.82,25.08Zm4.07-1.19-3.35,1.94.84-25.66c1.21.28,2.45.58,3.71.89L203.23,115Zm6.44-3.75-3.37,2,1.07-20.29c.9.24,1.84.49,2.79.76l-.49,17.56Zm.76-.44.47-16.91c2.71.77,5.65,1.65,8.94,2.69l-.18,8.86-9.23,5.36Zm8.86,14.3c-2.62-1.21-5.68-2.55-9.14-3.94l.25-9.1,9.25-5.37-.36,18.41Zm10.44,5.4c-1.31-.76-4.61-2.65-9.7-5.06l.38-19.19,9.83-5.71-.51,30Zm.74.22.51-30a56.75,56.75,0,0,1,10.46,5.85l-.81,22.9,0,.55c-2.94.31-6.32.57-10.18.74Zm-9.73,14.23L220,132.06h.55c3.32,0,6.4-.07,9.24-.19l.47,11.44c-3,.55-6.16,1.09-9.49,1.62Zm-10.63,2.69q5.22-.68,10-1.43l1.78,6.78-11.16-2.84-.66-2.51Zm-3.7.45,3-.35.56,2.18-3.32-.84-.2-1Zm-16,1.49q3.77-.24,7.46-.59l-6.78,4-.69-3.37Zm-9.4.49c2.9-.11,5.79-.25,8.65-.44l.75,3.72-8.16,4.76-1.24-8Zm-2.79.07c.68,0,1.36,0,2-.06l1.31,8.44-3,1.74-.36-10.12Zm-9.43-17.94,5.44-3.86,2.21.31,1,20.35q-3.84.08-7.71,0ZM160,147.91l-.5-9.08,8.65-6.15L169,149c-3-.05-6-.16-8.93-.35Zm-7.91.07-.13-3.79,6.83-4.86.48,8.76.08.51q-3.66-.24-7.26-.63Zm-.72,1.07,2.16,10.75-5.66-11.19c1.16.15,2.32.32,3.5.44Zm-29-7.82-.26-3.34,6.41-15.95.31,21.71c-2.16-.54-4.27-1.09-6.36-1.67l-.09-.75Zm-1-1.66.15,1.87,0,.32-1-.27.77-1.91Zm-6.72.16-.06-.58-1.55-24.65c2.14.65,4.34,1.29,6.57,1.92v.06l1.62,21.3-1.4,3.48c-1.75-.5-3.48-1-5.19-1.53Zm.15,1.22c1.43.44,2.89.88,4.36,1.29l-3.7,4.43-.66-5.71Zm-7.69-2.48q3.38,1.16,6.91,2.23l.77,6.75-5,5.91-1.9-2.14-.77-12.75Zm-9-3.26c2.65,1,5.38,2,8.21,3l.75,12.11-8.48-9.56-.48-5.55Zm-4-1.59c1.06.44,2.12.86,3.2,1.27l.43,4.9-4.51-5.09.88-1.07Zm-2.85-1.17.86,2.15-.12.15.08.1-2.3,4.75-1-8.19,2.44,1Zm-2.64-6.59L90.77,131c-.67-.3-1.35-.57-2-.87l-.06-4.28Zm-9.1-22.72L87.94,124l.08,5.87q-4.47-2-8.58-4l.16-22.64Zm-23.88,9.77Zm-7.31-5.47c.48.37,1,.76,1.46,1.13l-1.39-.14Zm-8.88-7.7c.47.45.95.9,1.46,1.36q3,2.75,6.64,5.71l.1,1.54-7.57-.81-.63-7.78ZM38.72,99l.57,7L32.22,92.25c1.94,2.15,4.09,4.41,6.5,6.72Zm.82-22.51c2,.09,4.83.28,8.32.73l-.4,6.86c-2.94-1.9-5.61-3.72-8-5.49Zm16.71,5.06L55.67,89q-4-2.3-7.49-4.54l.42-7.21c1.09.14,2.23.32,3.43.51l4.22,3.72Zm.1-1.23L53.9,78.12l2.58.48Zm8.87,7.82L57.05,80.9l.16-2.15c2.65.54,5.49,1.19,8.54,2l-.51,7.36Zm7,6.21-6.33-5.59.54-7.79c.84.22,1.68.45,2.53.71,1.45.41,2.81.84,4.11,1.26L72.26,94.3Zm7.43,5.47.72-14.15c2.53,1,4.93,2.12,7.34,3.23Zm9.85-11.3-.43-.2v0l1.1-19.79,6.56,23.26c-2.53-1.09-4.89-2.18-7.23-3.25Zm15.19,22.14-.54-.18.21-.48L98.33,93.84l6.51,5.42-.11,11.37Zm7.75-.88-2.22,2.71c-1.61-.51-3.2-1-4.78-1.55l.11-11,7.07,5.87-.17,4Zm.77-1,.11-2.44,1.11,1-1.22,1.51Zm-2,4,1.18-1.46-.08,1.79Zm-5.28,6.46,4.5-5.54c.63.19,1.24.39,1.87.57l1.56,25,0,.18c-2.33-.72-4.62-1.45-6.84-2.21l-1.11-18Zm-8.67,10.62.06,3.85-2.41-1,2.35-2.89Zm-8.85-24,1.5.59,2.13,25.07a1.23,1.23,0,0,1-.23-.09l-3.15-7.87-.26-17.71Zm-.75-.3.24,16.1-7.69-19.2q3.6,1.56,7.44,3.09Zm-22.16-10c2.08,1,4.23,2.12,6.47,3.16v3.94l-6.82,2,.34-9.11Zm6.51,2c-2.24-1.07-4.39-2.14-6.47-3.2V94.1L65.83,90l6.33,5.59-.15,2Zm3,.44,2.18,1.9c-.75-.32-1.48-.67-2.22-1v-.4L75,98Zm12.75,6.38q-3.91-1.56-7.59-3.16l-.24-.22,8.42-11.42-.6,14.79Zm1.16-10.2,1,11-1.37-.53.42-10.5Zm6.07,13-4.37-1.65-1.37-16,.12.06c2.35,1.08,4.72,2.16,7.23,3.25Zm3,15.07-.18-12.65v-.24q2.55.91,5.21,1.82l-5,11.06Zm-.65,6.12-2.79,3.42,2.75-6Zm-1.59-20.93L97,95.78V108l-1.3-.49ZM92.54,128.7l-1.85-21.9,4.13,1.57Zm.42,4.43,0,.07,0-.09h0Zm0-1.2,2.61-23.32c.48.18,1,.36,1.42.52v.53l.22,14.19-3.77,8.27-.48-.19Zm12.55-19.85,4,1.3-3.64,4.47Zm-.76-.25.43,6.87L98,127.51l0-3.29,5.8-12.73c.32.11.67.22,1,.35Zm-1.33-1.63c-1.94-.65-3.83-1.32-5.68-2V94.52l5.81,15.41-.13.27Zm-47-21,.55-7,8.17,7.23L64.81,94v0c-3-1.53-5.77-3-8.4-4.56v-.29Zm0,1.51c2.62,1.49,5.4,3,8.36,4.51l-.36,9.72-8,2.35V90.69Zm-4.76,18c-1.16-.89-2.27-1.74-3.32-2.6h0l-.18-20.35q3.51,2.24,7.51,4.54V107.5l-4,1.19Zm1.12.83,2.9-.85v3c-1-.71-2-1.42-2.91-2.11Zm25.83-7.58L74.93,113.7V103l3.67-1.08Zm-3.67-.09v-1.69l2.26,1-2.26.66ZM98.08,134,98,129l7.24-8.89L106.3,137c-2.85-1-5.57-2-8.23-3Zm21.82-22.22-.2,3.51c-2.27-.66-4.48-1.3-6.66-2l.14-3,2-2.46Zm.57-10.29-.5,9-4.14-3.45,4.65-5.71v.12Zm0-.42-.06-.14h.07v.14Zm7.91,16.49-7.69-6.4.54-9.53,0-.49c2.28.56,4.68,1.12,7.25,1.67l-.13,14.74Zm9.22-14v-.11l.93-13.48L142,96.78l3.23,8.19c-2.21-.42-4.69-.88-7.51-1.45Zm12.65,2.35c-1.12-.2-2.32-.4-3.61-.64l4.66-16.68-1.05,17.33Zm8.12,4.92-4.33-3.14c.9.16,1.75.28,2.57.41l1.82.32-.06,2.42Zm9.73,6-.28.91-8.73-6.33.09-2.84c2.91.49,5.71,1,9.11,1.67l-.19,6.6Zm.81-2.6.12-3.84,1,.21Zm-.34,12.1.16-6,4.82,6.79C172,126.81,170.3,126.54,168.61,126.26Zm0,1.21v-.06c1.42.25,2.82.47,4.22.69l-4,2.84-.19-3.48Zm-9.52,3.85,3.65-4.92,5.13.89v.19l.22,4-8.65,6.15-.34-6.29Zm-7.25,9.79,6.56-8.86.32,5.87L151.87,143l-.06-1.85Zm-.67,3.64.11,3.16c-1.29-.14-2.58-.32-3.85-.48l3.74-2.67Zm-2.28.35,2.2-3,0,1.38-2.24,1.58ZM137,121c3,.73,6,1.42,9,2.07l.08,4.56v17.68L137.12,130l-.14-9Zm-5.61-1.37,4.8,1.18.14,7.82L131,119.5a2.8,2.8,0,0,1,.31.09Zm-10.88-4.08.17-3.11,5.67,4.7c-2-.51-3.93-1.06-5.84-1.58Zm7.91,3.31,0,0,0,1-6.52,16.26-1.49-19.43q3.89,1.1,7.94,2.15Zm8.92-7.06.3-7.09c2.82.57,5.31,1,7.52,1.45l-7.82,5.64ZM158,124.35c-2.21-.43-4.5-.88-6.82-1.36l-.14-13.24.19-1.9.4-.22.31-.24,6.42,4.65L158,124.36Zm.74,1.32,3,.54L159,129.9l-.22-4.23Zm-7.52-1.51,6.77,1.36.3,5.31-6.56,8.83-.53-15.5Zm-1.66-.35.84.18.58,16.7-3.7,5,2.28-21.87Zm-12.41-8.5,8.5-4.5.18,6.4.07,4.65c-2.91-.63-5.9-1.34-8.94-2.06Zm-.77-.81-4.21,2.21,4.24-3.06,0,.83Zm9.22-4.89-8.41,4.45,0-1,8.29-6,.07,2.53Zm1.18,21.71v-8.11c.68.15,1.37.32,2,.45l-1.9,18-.15-10.37Zm3.54-14.65.06,6.15-.7-.15.64-6Zm-.08-6.53L149,122.51c-.73-.16-1.44-.32-2.18-.46l-.26-8.68,0-3,3.75-2,0,1.77Zm-18.78,8.31-.16,0,5-2.65-.16,3.86-4.7-1.16Zm31,6.74c-1.22-.23-2.46-.45-3.71-.7l.33-11.91,8.27,6-4.89,6.62Zm5.56-6,0,.06-.2,6.88-4.42-.77L168,119.2ZM150.25,107v.15l-3.77,2,0-2.81,3.82.67Zm-13.41-2.5-.35,7.84-7.25,5.23.12-14.61,7.48,1.54Zm.58,41.14-.24-13.9L146,147v.23c-2.92-.44-5.79-1-8.61-1.58Zm38.69-33.76.31,15.57-1.6-.23-6-8.47.05-1.72,2-6.36c1.58.35,3.32.75,5.26,1.21Zm-4.91-2.3,6.61-21.19-1.69,22.33c-1.8-.43-3.43-.81-4.92-1.13Zm18.25,19.53c-2.61-.28-5.31-.61-8.08-1L180.74,113c1.61.4,3.31.84,5.17,1.33,1.21.31,2.39.63,3.56,1v13.79Zm.75-14.76.64-9.17L198.61,117c-2.65-.88-5.45-1.73-8.4-2.58Zm8.92,3.93V130c-2.87-.23-5.85-.5-8.93-.83V115.55c3.14.88,6.12,1.81,8.93,2.75Zm3.92.16-2.33-.81,2.44-1.41-.11,2.21Zm2.92,1.06.26-5.06,3.41-2-.23,8.39c-1.11-.45-2.26-.89-3.44-1.34Zm3.19,10.93v.2c-1.23-.05-2.49-.12-3.77-.19h0l.52-9.76c1.2.45,2.36.89,3.48,1.34l-.23,8.41ZM220,126.62c3.72,1.75,6.46,3.22,8.13,4.16-2.55.1-5.29.13-8.22.13l.08-4.29Zm-.82,4.29c-2.91,0-6-.08-9.29-.22v-.23l.23-8.14c3.47,1.39,6.54,2.74,9.17,4l-.1,4.63Zm-9.29.93c3.3.14,6.41.2,9.34.22l.78,13c-3.23.52-6.62,1-10.12,1.44V131.84Zm-9.07,15.69-.06-.43-.83-15.84,2.55.18.8,15.84-2.46.26Zm1.6-17.26-2.53-.17V118.54c1.08.37,2.11.72,3.12,1.08l-.56,10.64h0Zm-21-.94c2.77.36,5.46.69,8.07,1l.17,18.18c-2.9.18-5.82.33-8.75.43l.51-19.58ZM178.21,149l-1-20.22,3.43.47-.52,19.7-1.93.05Zm12.17-.55-.18-18c3.11.31,6.11.6,9,.82l.84,16.08,0,.35c-3.16.31-6.42.58-9.69.8ZM206.22,147l-.78-15.34c1.27.07,2.49.14,3.71.19v14.79ZM180,112.85l.63,15.21-3.45-.47-.31-15.5,3.14.77ZM137.89,88.49l-1,14.83v0c-2.25-.45-4.72-1-7.46-1.54l1.84-25.12,2.3,2.63,4,6-.4,1.7.71,1.46ZM79.7,85.35l-.76,14.87-3.87-3.41L76,84c1.27.45,2.48.93,3.66,1.41Zm.06-1.17c-1.18-.47-2.39-.94-3.63-1.39L77.5,64.34l3.55-1.72L79.76,83.88l0,.32ZM36.54,76.43c.51,0,1.26,0,2.28,0l-.1,1.6-2.18-1.62Zm2.87,21.85V79.82c2.44,1.76,5.1,3.58,8,5.44l.17,20.23c-2.24-1.83-4.28-3.6-6.14-5.3-.7-.64-1.38-1.27-2-1.9h0Zm17,13.87v-3.7l8-2.33-.41,11q-4-2.5-7.55-5Zm8.27,5.42v0l.44-11.64,6.85-2v18c-2.55-1.41-5-2.84-7.27-4.26ZM75,123.48l0-.57v-6.58l3.91-12.59-.14,21.68c-1.27-.63-2.53-1.29-3.74-1.93Zm54.59,20.37L129.24,120l.26-.65.34-.17h0l6.49,11.14.27,15.14q-3.6-.79-7-1.64Zm7.91,3c2.67.58,5.37,1.07,8.14,1.48l-6.72,12.12Zm34.39,17.31-2.05-14,3,0c1.55,0,3.12,0,4.67-.05l.36,10.53L172,164.15Zm59.09-21-.45-11.34c3.87-.17,7.27-.44,10.22-.75l.59,10c-3.08.65-6.55,1.36-10.35,2.07ZM104.89,95c-2.48-.9-4.74-1.82-6.91-2.73l-.23-.2,1.68-27c2.65,1.2,5.19,2.3,7.5,3.23l-2,26.25V95ZM34.6,76.23l-4.16,7.93.12-11.22c1.24,1,2.59,2.14,4,3.29ZM22.29,77.59l.17-12.19c1.82,1.89,4.26,4.23,7.36,6.91l-.14,13.28L29,87a94.11,94.11,0,0,1-6.62-9.15l-.05-.24ZM19.23,60.33a37.11,37.11,0,0,1,3.11-10.75l-.55,13.7c-1.19-1.29-2-2.3-2.56-3Zm-.47,11.13a57.13,57.13,0,0,1,.32-9.87c.61.73,1.48,1.76,2.68,3l-.17,12c-1.46-2.41-2.36-4.19-2.81-5.13ZM22.71,80a104.24,104.24,0,0,0,7,9.34L30.85,98a81.49,81.49,0,0,1-6.54-8.6Zm61.52,62.37c-1.27-.72-2.54-1.48-3.8-2.23l-.11-1.61,3.91,3.84Zm3.24,1.83-7.26-7.15-.7-10q4.11,2.05,8.61,4l1.13,9.81-1.68,3.43-.1-.07ZM242,141l-.58-9.93c4.63-.5,8.1-1.1,10.41-1.56l-.17,9.26c-2.37.59-5.67,1.36-9.68,2.21Zm13.4-3.19-3,.78.15-9.25c1.07-.23,1.82-.42,2.26-.53a34.83,34.83,0,0,1,.57,9ZM254.81,122C250.86,108.9,241.06,101,221,94.57c-17.9-5.69-25.54-6.94-42.26-9.71l-.32,0-.19-.28-.07.23c-3.06-.5-6.41-1.05-10.19-1.69A325.38,325.38,0,0,1,131,74a4.39,4.39,0,0,0,.05-1.4c0-.13,0-.26,0-.41a1.64,1.64,0,0,1,.77.23,1.9,1.9,0,0,0,1.38.21l.42-.11-.12-.63a1.71,1.71,0,0,0-1.54-1.44c-.35-.1-.73-.19-.89-.46V67.23l-.68,1.87A10.32,10.32,0,0,0,130,72c0,.56-.06,1.12-.12,1.62l-2.27-.7L127,72.7v.07c-7.79-2.42-13-4.26-13.12-4.3-13.52-4-49.53-23.21-49.88-23.39C52,38,41.11,36,32,39l-.34,0v.16a26.19,26.19,0,0,0-4.89,2.28c-8.92,5.39-11.47,24.72-8.27,39.38,3.74,17.08,38.27,46,54.69,57.25v.11l.13,0c1.19.82,2.3,1.56,3.27,2.18,29.9,18.84,56.55,26.18,95.06,26.18,39.63,0,77.38-13.6,81.57-18.32,4.43-5,5-14.74,1.58-26.12Z"/><path class="cls-1" d="M124.12,24.64l-.06,0c0-.32,0-.6,0-.88l.07.86Zm-2.69,44c.2,1.06-.35,1-.25,1.9.36.91.27-2.08,1-1.9,1.12.17.64,2.8,1.71,3,.46-.51-.23-2.4-.25-3.4-.92.28-1.16-.47-1.94-.39,0-.14,0-.27,0-.41l11.15,3.29V32.48L131,30.93l-.77-7.39L128.61,23a22.33,22.33,0,0,0-4.75-1.71c-.48.75,0,3.07-.56,3.64l-.41.14v.38c-1,.27-.22,3.44-.48,4.93a3.59,3.59,0,0,0,.48-1.64v1.64l-1.18.77c0-.25,0-.51,0-.77-1.33,1.14-.72,4.07-.72,6,0,9.41-.31,21-.49,30.71-.26,1.39.81.73,1,1.51Z"/><path class="cls-1" d="M176,176.2l-3.34-4.88,2.1-3.26,4.78-.46.58,1.37L176,176.2Zm-7.53,1.66,3.16-4.9,3.4,5-6.55-.06Zm-1,13.31-3.67-6.08,3.16-4.94,6.72.06-6.23,11Zm-8.32,1.17,3.61-5.63,3.42,5.7-7-.07Zm-1.52-4.17-3.2,0-.31-.52,4.7-7.51,1.92,3.19-3.1,4.82Zm-10,15.56-6.57-10.86,13.6-.07-7,10.93ZM138,188l-.78-1.74,4.62-4.48,3.79,6.43-5.92,0-1.72-.22Zm-4.41,13.9-2-10.12,4.82.63.72,1.62-3.48,7.86Zm-4.29-15L123.91,179l7,1.27L133,185l-2.22,2.15-1.49-.2Zm-6.2,14.19-2.65-10.72,6.55.86Zm-5.77-23.31,1.72.32,5.54,8.2-5.32-.7Zm-5,11.52,4.82.64,2.08,8.46-6.9-9.1ZM108,183.57l-6.43-8.66L114,177.16l2,8-7.55-1-.43-.59ZM111.7,168l1.06,4.31-6.47-1.17L111.7,168ZM133,171.77,131,175.62l-10.71-1.94-3.59-5.32Zm3.32.7h0l3.48,5.87-4.27,4.16-1.94-4.38,2.74-5.64Zm9.73,5.22,5.06,8.28-1.41,2.22h-.48l.23-.34-5.06-8.56,1.66-1.62Zm9.81.69-3.71,5.94-4.23-6.93,7.94,1ZM151.92,172l8.59-3.29.56,1.34-3.92,6.23-.26-.05-7.43-1.85,2.46-2.38Zm7.11-6.89,1.06,2.58L154,170Zm5.38-.36-1.07,1.71-1.71.65-1-2.36Zm7.31-11.95v.28l-5.88,9.38h-4.08Zm-7.95,19.54,3.54-5.63,2.13,3.13-4.09,6.36-1.58-3.87ZM162,168.09l.32-.1-.23.34-.08-.24Zm1.5,10.95-1.72,2.67-1.93-3.2.2-.32,3.45.86Zm-2.82-1.87,2-3.16,1.58,3.83-.12.19-3.45-.86Zm12-12.41-2.19,3.41L168.35,165l3.2-5.1V160l1.14,4.74Zm14.68-40.88.36-9.59,2.11.28-3.16-13.41-6.16-6.3-3.51-11-7.23-2.46-1.76,9,.71,18.61,2.11.55-1.06,14.79,1.24,7.39,4.22-2.74,1.93,4.65L175.42,143l-3.55,3.75,0,.4-29.54,28.66-3.41-5.79,9.91-22.25-3.79-.27-10,20-21.39-4.5-2-8.33-1,.59-3.28-1.06,3,9.62L99.83,170l-.58-.12-4.31-38.15-2.91.8,4.75,42.12L106,187.08l14.86,19.57.25-.45.22.89,1.38-.84,1.26,1.21,5-12.61,3.54,17.46,6.29-14.2,2.95,6.63,1.48-1.58,4.36,7.2,10.08-15.71,7.78.08-8.62,15.17,2.21,3,22.75-40,.34.8,2.39-5.5v-.11l1.18-2.08-1-1.35L186,146.05l1.23-6.84.71-4.66,1.93-4.93.52-5.19-3-.55Z"/><polygon class="cls-1" points="97.48 92.94 117.32 81.31 126.73 85.81 138.16 87.14 138.67 82.88 130.26 73.84 122.88 71.38 122.54 76.24 117.38 75.58 116.29 80.68 97.22 91.86 97.48 92.94 97.48 92.94"/><polygon class="cls-1" points="171.26 217.14 110.77 217.14 110.77 204.51 171.26 204.51 171.26 217.14 171.26 217.14"/></svg>
