<svg id="stevnsmuseum" xmlns="http://www.w3.org/2000/svg" xmlns:xlink="http://www.w3.org/1999/xlink" viewBox="0 0 277.8 243.96"><defs><style>.cls-1{fill:#88aabf;}</style><symbol id="New_Symbol_23" data-name="New Symbol 23" viewBox="0 0 135.21 107"><polygon class="cls-1" points="70.86 75.18 75 75.84 75.29 76.38 87.98 75.62 87.31 74.85 83.17 75.07 79.81 74.2 73.75 75.18 74.04 74.74 70.86 75.18"/><polygon class="cls-1" points="52.88 64.79 58.36 68.73 60.77 69.05 60.86 70.15 72.59 70.15 73.46 69.27 74.42 67.19 74.9 64.35 73.27 61.18 69.61 61.18 68.65 60.19 67.88 61.29 64.52 60.3 63.27 61.72 63.46 63.26 64.13 64.46 65.58 65.66 59.23 65.11 56.54 64.35 57.59 62.38 59.13 62.6 59.71 61.51 59.04 60.52 58.75 61.07 55.96 60.63 56.73 58.88 54.61 58.33 53.84 58.55 49.61 55.71 50.19 57.89 50.96 58.88 50.77 63.91 52.88 64.79"/><path class="cls-1" d="M78.24,71.21,76.09,70l.8-4.77,2.73-7.15-2.73-1.8-1.79-1.5-2.55-.22-3.14-1.8L66.69,54l1,.59,1.64-1,3.07,2h2.4L76,56.91l2.79,2-2.6,5.58-.29,3.39L74.61,70l3,2.51h57.6V71.15Z"/><path class="cls-1" d="M19.13,81.52l-1-3.06,5.87-3,.47.32,8.27-1,.58.66,10.58-1.1,1.35-.54L77,73.32l-1.73-1.75-2.21.33-1.16-.55-2.12.11.58-.44H67.69l.39,1.32-1.45-.55-6.44-.44.19,1.09H56.63L52.88,71l-9.62-1.86-1.44-1.31L38.07,66.3l.1.22L37,65.88l-15.29-3L20.09,63,14.9,64.9l-7,1.31,1.63,1.42L4.34,67,1.63,68.29V55.71l.67,2.08,15.7.76,3.55-.43,1.35,1.2,4.52,1.86,1-.66,2.41.66h.86l2.5,1.09,4.23,1,5.19,3.61,1.54.1,1,.66,2.12.77,3.56.33-1.45-1.1.49-.55L48,64.79,48.17,62l-1.92-8.2-2.7.44-3.84-3.07-.77.22L34.8,47.18l-.19-1.32-3.75-2.51-4.23-2-4.13,8,.38-4.26-1.73-.77L24.9,40.6l-4.33-2.84,1.83-3.28-.87-1.64-3.75-3.5-2.5-1.43-2-3.82L7.4,18.52,2.78,16.77,1.63,16V2.25L6.9,1.51l.1.55L24.13,9.51l-.29,4,1,2.52L24,18.3l2.59,2.84L26.05,23l1.45,5.8-.2,4.59.29,1.86,1.35-.76.57.11.39-.33,3.27-.11,5.48,1.31.87,2.19.67-.44,4,1V39.9l2,.76L46.67,42H48l.77,1.53-.1,1.2.48,1.53.58-.66,1.34,2.63-.07,2,2.59,1.09,1.54-.54,8.75,1.53L66.69,54l-2.77-2.83-7-1L54,49.49H52.41l-1-4-1.17-1.85L48.8,40.83l-2.1-.91L44.49,37l-4.32-1.13-1-1.35-3.34-1.35a52.05,52.05,0,0,1-5.3,0,3.14,3.14,0,0,0-2.53.72l.26-5.51-.73-5,.58-3L25,17.94l1.17-3-1.17-2V7.54L7.82,0,0,1V107H1.63V94.65l5.58-7,1.92-1.31h3.75L17,84.15Zm32.12-8.86.38.88-.58-.66Zm-9.14-15.2,1.35,2L45.19,61l2.4.66L45.77,62l.19.77L42,62l-.52-.93-.1.33L40,56ZM14.8,75.18l.1-1,1.15-.44.1,1.09L18,78.13,15.78,75.4Z"/></symbol></defs><title>Tegnebræt 1</title><use width="135.21" height="107" transform="translate(13.04 23.81) scale(1.84)" xlink:href="#New_Symbol_23"/></svg>
